<?xml version="1.0" encoding="UTF-8"?>
<svg version="1.1" xmlns="http://www.w3.org/2000/svg" width="262" height="207">
<path d="M0 0 C2.32429327 -0.05578304 4.64787234 -0.09355563 6.97265625 -0.12109375 C7.6675415 -0.13422607 8.36242676 -0.1473584 9.07836914 -0.16088867 C12.65421199 -0.16667699 15.47141841 -0.09633236 18.41015625 2.06640625 C19.50522117 5.351601 19.50976233 7.8030404 19.47265625 11.25390625 C19.46363281 12.34058594 19.45460938 13.42726563 19.4453125 14.546875 C19.43371094 15.37832031 19.42210937 16.20976563 19.41015625 17.06640625 C20.18875 16.58558594 20.96734375 16.10476562 21.76953125 15.609375 C26.82952613 12.65272119 32.65674118 12.36034868 38.41015625 13.06640625 C41.31027649 14.05098489 43.96764795 15.20337058 46.41015625 17.06640625 C46.90515625 18.55140625 46.90515625 18.55140625 47.41015625 20.06640625 C49.06015625 19.40640625 50.71015625 18.74640625 52.41015625 18.06640625 C51.58515625 17.34453125 50.76015625 16.62265625 49.91015625 15.87890625 C47.41015625 13.06640625 47.41015625 13.06640625 46.84765625 10.44140625 C47.41015625 8.06640625 47.41015625 8.06640625 49.08203125 6.44140625 C53.86801065 3.61478755 60.41678824 4.30904808 65.6796875 5.640625 C69.02956281 6.97352276 70.38232717 8.02466263 72.41015625 11.06640625 C72.34765625 14.12890625 72.34765625 14.12890625 71.41015625 17.06640625 C68.84765625 18.44140625 68.84765625 18.44140625 66.41015625 19.06640625 C67.37953125 19.85015625 68.34890625 20.63390625 69.34765625 21.44140625 C71.24977971 22.9792933 72.30645582 23.85900538 73.41015625 26.06640625 C73.5224093 29.12742432 73.57397261 32.16490408 73.578125 35.2265625 C73.58235977 36.15601181 73.58659454 37.08546112 73.59095764 38.04307556 C73.60089169 41.071731 73.60087342 44.10023733 73.59765625 47.12890625 C73.597052 48.15072998 73.59644775 49.17255371 73.5958252 50.2253418 C73.57649586 62.18595454 73.52513937 74.13186424 72.66015625 86.06640625 C72.59852295 87.04101807 72.53688965 88.01562988 72.47338867 89.01977539 C72.39580322 89.90141357 72.31821777 90.78305176 72.23828125 91.69140625 C72.17543945 92.42617187 72.11259766 93.1609375 72.04785156 93.91796875 C71.07505158 97.19539597 69.98469768 98.7801896 67.41015625 101.06640625 C64.29704182 101.70749776 61.28263291 101.53297902 58.12109375 101.37109375 C57.22145905 101.34419464 56.32182434 101.31729553 55.39492798 101.2895813 C52.52360743 101.19734192 49.65508932 101.06923649 46.78515625 100.94140625 C44.84512529 100.87667382 42.90501935 100.81414795 40.96484375 100.75390625 C26.81452755 100.2685919 26.81452755 100.2685919 24.41015625 99.06640625 C22.78603961 99.04999358 21.16102919 99.10236312 19.5390625 99.1875 C18.5063623 99.23600098 17.47366211 99.28450195 16.40966797 99.33447266 C15.2754541 99.39038574 14.14124023 99.44629883 12.97265625 99.50390625 C1.57185086 99.996196 -9.80496301 100.1831272 -21.21484375 100.19140625 C-21.96587372 100.19381317 -22.71690369 100.19622009 -23.49069214 100.19869995 C-37.01973126 100.235918 -37.01973126 100.235918 -42.98828125 99.49609375 C-46.41920065 98.75190831 -46.41920065 98.75190831 -48.58984375 100.06640625 C-56.58682069 100.49146188 -65.01342737 100.89151066 -72.58984375 98.06640625 C-75.04338748 92.99038626 -75.03507217 87.66114019 -75.21484375 82.12890625 C-75.25061523 81.1248877 -75.28638672 80.12086914 -75.32324219 79.08642578 C-75.62166511 69.42178621 -75.75527951 59.75177785 -75.82000732 50.08297729 C-75.83318243 48.32847943 -75.85109119 46.57401044 -75.87384033 44.8196106 C-75.90382504 42.32617824 -75.91350378 39.83343679 -75.91796875 37.33984375 C-75.9302652 36.59382401 -75.94256165 35.84780426 -75.95523071 35.07917786 C-75.93535102 30.33827801 -75.12173515 27.08306781 -72.58984375 23.06640625 C-70.1615429 21.85225582 -68.61620862 21.95205832 -65.90625 21.96875 C-64.97876953 21.97197266 -64.05128906 21.97519531 -63.09570312 21.97851562 C-62.12439453 21.98689453 -61.15308594 21.99527344 -60.15234375 22.00390625 C-59.18490234 22.00841797 -58.21746094 22.01292969 -57.22070312 22.01757812 C-55.42259507 22.02631286 -53.62449503 22.03709448 -51.82641602 22.05053711 C-50.08092785 22.06292186 -48.33537585 22.06640625 -46.58984375 22.06640625 C-46.07421875 21.40640625 -45.55859375 20.74640625 -45.02734375 20.06640625 C-41.71208392 17.34619305 -39.29477218 17.66602096 -35.125 17.73046875 C-32.3550591 18.09751793 -30.13239298 18.9293091 -27.58984375 20.06640625 C-27.40808594 18.38611328 -27.40808594 18.38611328 -27.22265625 16.671875 C-27.05381108 15.19916989 -26.88451678 13.72651621 -26.71484375 12.25390625 C-26.63621094 11.51591797 -26.55757812 10.77792969 -26.4765625 10.01757812 C-26.04524089 6.35134444 -25.67016545 4.1868888 -23.58984375 1.06640625 C-21.70483398 0.6340332 -21.70483398 0.6340332 -19.3984375 0.5546875 C-18.5437085 0.51899658 -17.68897949 0.48330566 -16.80834961 0.4465332 C-15.89061768 0.42421631 -14.97288574 0.40189941 -14.02734375 0.37890625 C-12.62270874 0.33092896 -12.62270874 0.33092896 -11.18969727 0.28198242 C-7.46024518 0.16473586 -3.73001799 0.09564149 0 0 Z " fill="#091930" transform="translate(134.58984375,20.93359375)"/>
<path d="M0 0 C2.32429327 -0.05578304 4.64787234 -0.09355563 6.97265625 -0.12109375 C7.6675415 -0.13422607 8.36242676 -0.1473584 9.07836914 -0.16088867 C12.65421199 -0.16667699 15.47141841 -0.09633236 18.41015625 2.06640625 C19.50522117 5.351601 19.50976233 7.8030404 19.47265625 11.25390625 C19.46363281 12.34058594 19.45460937 13.42726563 19.4453125 14.546875 C19.43371094 15.37832031 19.42210937 16.20976563 19.41015625 17.06640625 C20.18875 16.58558594 20.96734375 16.10476562 21.76953125 15.609375 C26.82952613 12.65272119 32.65674118 12.36034868 38.41015625 13.06640625 C41.31027649 14.05098489 43.96764795 15.20337058 46.41015625 17.06640625 C46.90515625 18.55140625 46.90515625 18.55140625 47.41015625 20.06640625 C49.06015625 19.40640625 50.71015625 18.74640625 52.41015625 18.06640625 C51.58515625 17.34453125 50.76015625 16.62265625 49.91015625 15.87890625 C47.41015625 13.06640625 47.41015625 13.06640625 46.84765625 10.44140625 C47.41015625 8.06640625 47.41015625 8.06640625 49.08203125 6.44140625 C53.86801065 3.61478755 60.41678824 4.30904808 65.6796875 5.640625 C69.02956281 6.97352276 70.38232717 8.02466263 72.41015625 11.06640625 C72.34765625 14.12890625 72.34765625 14.12890625 71.41015625 17.06640625 C68.84765625 18.44140625 68.84765625 18.44140625 66.41015625 19.06640625 C67.37953125 19.85015625 68.34890625 20.63390625 69.34765625 21.44140625 C71.24977971 22.9792933 72.30645582 23.85900538 73.41015625 26.06640625 C73.5224093 29.12742432 73.57397261 32.16490408 73.578125 35.2265625 C73.58235977 36.15601181 73.58659454 37.08546112 73.59095764 38.04307556 C73.60089169 41.071731 73.60087342 44.10023733 73.59765625 47.12890625 C73.597052 48.15072998 73.59644775 49.17255371 73.5958252 50.2253418 C73.57649586 62.18595454 73.52513937 74.13186424 72.66015625 86.06640625 C72.5677063 87.52832397 72.5677063 87.52832397 72.47338867 89.01977539 C72.39580322 89.90141357 72.31821777 90.78305176 72.23828125 91.69140625 C72.17543945 92.42617187 72.11259766 93.1609375 72.04785156 93.91796875 C71.07505158 97.19539597 69.98469768 98.7801896 67.41015625 101.06640625 C64.29704182 101.70749776 61.28263291 101.53297902 58.12109375 101.37109375 C57.22145905 101.34419464 56.32182434 101.31729553 55.39492798 101.2895813 C52.52360743 101.19734192 49.65508932 101.06923649 46.78515625 100.94140625 C44.84512529 100.87667382 42.90501935 100.81414795 40.96484375 100.75390625 C26.81452755 100.2685919 26.81452755 100.2685919 24.41015625 99.06640625 C22.61029892 99.05003053 20.80962812 99.10219773 19.01171875 99.1875 C17.90094971 99.23592041 16.79018066 99.28434082 15.64575195 99.33422852 C14.45425537 99.39022217 13.26275879 99.44621582 12.03515625 99.50390625 C0.48283491 99.9963963 -11.02883444 100.18504831 -22.58984375 100.06640625 C-22.91984375 99.07640625 -23.24984375 98.08640625 -23.58984375 97.06640625 C-23.11546875 96.65390625 -22.64109375 96.24140625 -22.15234375 95.81640625 C-20.41085062 93.86593395 -20.12431156 92.57788606 -19.58984375 90.06640625 C-18.6676001 90.09782715 -17.74535645 90.12924805 -16.79516602 90.16162109 C-13.33399472 90.26461533 -9.8744784 90.33944391 -6.41235352 90.39599609 C-4.92153033 90.42595106 -3.43088007 90.46673194 -1.94067383 90.51904297 C6.2899729 90.80047977 13.03505171 90.99707518 19.79174805 85.59155273 C26.453275 79.31390017 28.49144277 72.86639099 28.76586914 63.86962891 C28.84728642 54.41079576 28.06954436 45.41009671 22.0703125 37.66796875 C14.76988503 30.62520342 7.25564778 28.88581983 -2.46484375 28.87890625 C-3.36332031 28.86666016 -4.26179688 28.85441406 -5.1875 28.84179688 C-9.83032698 28.83150996 -13.33452922 29.0196485 -17.58984375 31.06640625 C-18.57984375 31.06640625 -19.56984375 31.06640625 -20.58984375 31.06640625 C-20.89921875 29.98359375 -20.89921875 29.98359375 -21.21484375 28.87890625 C-22.55702937 26.13352656 -23.37041075 25.22935885 -25.67578125 23.390625 C-26.63742188 22.62363281 -27.5990625 21.85664062 -28.58984375 21.06640625 C-28.14024722 18.29389431 -27.68058296 15.52371106 -27.21484375 12.75390625 C-27.02535156 11.57538086 -27.02535156 11.57538086 -26.83203125 10.37304688 C-26.703125 9.61572266 -26.57421875 8.85839844 -26.44140625 8.078125 C-26.32619629 7.38162842 -26.21098633 6.68513184 -26.09228516 5.9675293 C-25.58984375 4.06640625 -25.58984375 4.06640625 -23.58984375 1.06640625 C-21.70483398 0.6340332 -21.70483398 0.6340332 -19.3984375 0.5546875 C-18.5437085 0.51899658 -17.68897949 0.48330566 -16.80834961 0.4465332 C-15.89061768 0.42421631 -14.97288574 0.40189941 -14.02734375 0.37890625 C-12.62270874 0.33092896 -12.62270874 0.33092896 -11.18969727 0.28198242 C-7.46024518 0.16473586 -3.73001799 0.09564149 0 0 Z " fill="#F3A11A" transform="translate(134.58984375,20.93359375)"/>
<path d="M0 0 C3.34987531 1.33289776 4.70263967 2.38403763 6.73046875 5.42578125 C6.66796875 8.48828125 6.66796875 8.48828125 5.73046875 11.42578125 C3.16796875 12.80078125 3.16796875 12.80078125 0.73046875 13.42578125 C1.69984375 14.20953125 2.66921875 14.99328125 3.66796875 15.80078125 C5.57009221 17.3386683 6.62676832 18.21838038 7.73046875 20.42578125 C7.8246392 21.79121884 7.85840502 23.16110486 7.85986328 24.52978516 C7.86301544 25.37892487 7.8661676 26.22806458 7.86941528 27.10293579 C7.86739105 28.02674042 7.86536682 28.95054504 7.86328125 29.90234375 C7.86423798 30.8603891 7.8651947 31.81843445 7.86618042 32.80551147 C7.86686257 34.84495102 7.86500588 36.88439272 7.86083984 38.92382812 C7.85557378 41.98963573 7.86074049 45.05529124 7.8671875 48.12109375 C7.87612399 71.23321466 7.87612399 71.23321466 6.73046875 81.42578125 C6.40046875 81.75578125 6.07046875 82.08578125 5.73046875 82.42578125 C5.54484375 84.06546875 5.54484375 84.06546875 5.35546875 85.73828125 C4.46747515 90.97744349 4.46747515 90.97744349 1.73046875 93.42578125 C-1.28089302 93.75336452 -3.89698744 93.84977267 -6.89453125 93.73828125 C-8.10761963 93.71507813 -8.10761963 93.71507813 -9.34521484 93.69140625 C-14.69762834 93.56204278 -19.97013614 93.21087682 -25.26953125 92.42578125 C-25.26953125 91.43578125 -25.26953125 90.44578125 -25.26953125 89.42578125 C-25.92953125 89.42578125 -26.58953125 89.42578125 -27.26953125 89.42578125 C-30.57435563 82.81613249 -27.85025784 72.23407824 -27.01953125 65.17578125 C-26.81710815 63.44956543 -26.81710815 63.44956543 -26.6105957 61.68847656 C-26.3190022 59.22686572 -26.0244015 56.76560954 -25.72705078 54.3046875 C-25.3338793 50.97133183 -24.96706255 47.63710939 -24.61306763 44.29949951 C-24.31981833 41.58216597 -24.00428473 38.86770384 -23.68395996 36.15344238 C-23.46177127 34.21709009 -23.26430186 32.27795225 -23.06738281 30.33886719 C-22.16705726 22.97925235 -20.94443335 18.35610056 -15.26953125 13.42578125 C-14.60953125 12.76578125 -13.94953125 12.10578125 -13.26953125 11.42578125 C-14.50703125 10.59046875 -14.50703125 10.59046875 -15.76953125 9.73828125 C-18.26953125 7.42578125 -18.26953125 7.42578125 -18.83203125 4.86328125 C-18.26953125 2.42578125 -18.26953125 2.42578125 -16.59765625 0.796875 C-11.80860574 -2.0235222 -5.26298232 -1.33159794 0 0 Z " fill="#FCD902" transform="translate(200.26953125,26.57421875)"/>
<path d="M0 0 C0.94101563 0.00322266 1.88203125 0.00644531 2.8515625 0.00976562 C3.83640625 0.01814453 4.82125 0.02652344 5.8359375 0.03515625 C6.82851562 0.03966797 7.82109375 0.04417969 8.84375 0.04882812 C11.2995391 0.0606348 13.75520854 0.07710225 16.2109375 0.09765625 C16.5409375 1.08765625 16.8709375 2.07765625 17.2109375 3.09765625 C17.8709375 3.09765625 18.5309375 3.09765625 19.2109375 3.09765625 C21.78356041 9.73005595 22.89594873 15.95742516 23.3984375 23.03515625 C23.51578247 24.60958496 23.51578247 24.60958496 23.63549805 26.21582031 C24.22539085 35.15748883 24.44525609 44.10015935 24.50747681 53.05911255 C24.51806928 54.57792771 24.53298336 56.09671922 24.55233765 57.615448 C24.57607643 59.76087368 24.5785061 61.90524901 24.57421875 64.05078125 C24.57719971 65.28989258 24.58018066 66.52900391 24.58325195 67.80566406 C24.18017813 71.36962958 23.32934648 73.2383259 21.2109375 76.09765625 C15.67375075 80.22877086 5.85005273 78.40010282 -0.703125 77.85546875 C-3.1015625 77.47265625 -3.1015625 77.47265625 -6.7890625 76.09765625 C-9.24260623 71.02163626 -9.23429092 65.69239019 -9.4140625 60.16015625 C-9.44983398 59.1561377 -9.48560547 58.15211914 -9.52246094 57.11767578 C-9.82088386 47.45303621 -9.95449826 37.78302785 -10.01922607 28.11422729 C-10.03240118 26.35972943 -10.05030994 24.60526044 -10.07305908 22.8508606 C-10.10304379 20.35742824 -10.11272253 17.86468679 -10.1171875 15.37109375 C-10.12948395 14.62507401 -10.1417804 13.87905426 -10.15444946 13.11042786 C-10.13456977 8.36952801 -9.3209539 5.11431781 -6.7890625 1.09765625 C-4.33631109 -0.12871945 -2.7384844 -0.01649689 0 0 Z " fill="#EB4E9A" transform="translate(68.7890625,42.90234375)"/>
<path d="M0 0 C0.6965419 -0.00191345 1.3930838 -0.0038269 2.11073303 -0.00579834 C3.58253338 -0.007158 5.05434581 -0.00347682 6.52612305 0.00488281 C8.77355052 0.01556981 11.02017576 0.004989 13.26757812 -0.0078125 C14.69922051 -0.00649055 16.13086239 -0.00392742 17.5625 0 C18.8630835 0.00225586 20.16366699 0.00451172 21.50366211 0.00683594 C26.39788793 0.3855962 26.39788793 0.3855962 28.84765625 2.265625 C30.25849734 5.54984759 29.97693731 9.1132187 29.98046875 12.640625 C29.98240234 14.48914063 29.98240234 14.48914063 29.984375 16.375 C29.98050781 17.65890625 29.97664063 18.9428125 29.97265625 20.265625 C29.97845703 22.19148438 29.97845703 22.19148438 29.984375 24.15625 C29.98308594 25.38859375 29.98179688 26.6209375 29.98046875 27.890625 C29.97934082 29.01726562 29.97821289 30.14390625 29.97705078 31.3046875 C29.77598098 35.90577147 29.77598098 35.90577147 28.84765625 38.265625 C25.41245145 40.55576153 23.86232525 40.44405473 19.84765625 40.265625 C18.88677242 37.38297351 18.73094684 35.58900229 18.75 32.59765625 C18.75322266 31.70498047 18.75644531 30.81230469 18.75976562 29.89257812 C18.76814453 28.96380859 18.77652344 28.03503906 18.78515625 27.078125 C18.78966797 26.13775391 18.79417969 25.19738281 18.79882812 24.22851562 C18.81060999 21.90748788 18.82706067 19.58658856 18.84765625 17.265625 C17.52765625 17.265625 16.20765625 17.265625 14.84765625 17.265625 C14.85551147 18.15084839 14.85551147 18.15084839 14.86352539 19.05395508 C14.88431672 21.72866755 14.89732326 24.40336301 14.91015625 27.078125 C14.91853516 28.00689453 14.92691406 28.93566406 14.93554688 29.89257812 C14.94038086 31.2315918 14.94038086 31.2315918 14.9453125 32.59765625 C14.95316772 33.83092651 14.95316772 33.83092651 14.96118164 35.08911133 C14.84765625 37.265625 14.84765625 37.265625 13.84765625 40.265625 C12.19765625 40.265625 10.54765625 40.265625 8.84765625 40.265625 C7.88677242 37.38297351 7.73094684 35.58900229 7.75 32.59765625 C7.75322266 31.70498047 7.75644531 30.81230469 7.75976562 29.89257812 C7.76814453 28.96380859 7.77652344 28.03503906 7.78515625 27.078125 C7.78966797 26.13775391 7.79417969 25.19738281 7.79882812 24.22851562 C7.81060999 21.90748788 7.82706067 19.58658856 7.84765625 17.265625 C6.52765625 17.595625 5.20765625 17.925625 3.84765625 18.265625 C3.85925781 19.09964844 3.87085937 19.93367188 3.8828125 20.79296875 C3.93565418 27.38308162 3.73320693 33.73468874 2.84765625 40.265625 C-1.11234375 40.265625 -5.07234375 40.265625 -9.15234375 40.265625 C-9.15234375 39.605625 -9.15234375 38.945625 -9.15234375 38.265625 C-10.14234375 37.935625 -11.13234375 37.605625 -12.15234375 37.265625 C-12.37022457 33.08544211 -12.56690627 28.90494793 -12.74438477 24.72290039 C-12.80763759 23.30173401 -12.87657846 21.88080852 -12.95141602 20.46020508 C-13.05827627 18.4126479 -13.14433984 16.36508298 -13.2265625 14.31640625 C-13.28416748 13.08575439 -13.34177246 11.85510254 -13.40112305 10.5871582 C-13.12551613 6.90744069 -12.38714689 5.16636251 -10.15234375 2.265625 C-6.42314821 -0.22050536 -4.45262819 0.00772978 0 0 Z " fill="#F9F9F9" transform="translate(54.15234375,139.734375)"/>
<path d="M0 0 C2.32429327 -0.05578304 4.64787234 -0.09355563 6.97265625 -0.12109375 C7.6675415 -0.13422607 8.36242676 -0.1473584 9.07836914 -0.16088867 C12.65421199 -0.16667699 15.47141841 -0.09633236 18.41015625 2.06640625 C19.50522117 5.351601 19.50976233 7.8030404 19.47265625 11.25390625 C19.46363281 12.34058594 19.45460937 13.42726563 19.4453125 14.546875 C19.43371094 15.37832031 19.42210937 16.20976563 19.41015625 17.06640625 C20.18875 16.58558594 20.96734375 16.10476562 21.76953125 15.609375 C26.85380153 12.6385366 32.63045422 12.45801656 38.41015625 13.06640625 C41.97265625 14.56640625 41.97265625 14.56640625 44.41015625 16.06640625 C43.42015625 16.72640625 42.43015625 17.38640625 41.41015625 18.06640625 C41.41015625 17.40640625 41.41015625 16.74640625 41.41015625 16.06640625 C35.47015625 16.06640625 29.53015625 16.06640625 23.41015625 16.06640625 C19.68909585 25.31595566 19.68909585 25.31595566 20.41015625 35.06640625 C18.4003113 34.06486167 16.39631065 33.05908438 14.41113281 32.00927734 C8.53042975 29.09885998 3.66723885 28.50520961 -2.83984375 28.69140625 C-4.14695313 28.69333984 -4.14695313 28.69333984 -5.48046875 28.6953125 C-10.00182081 28.75734324 -13.44093585 29.11673149 -17.58984375 31.06640625 C-18.57984375 31.06640625 -19.56984375 31.06640625 -20.58984375 31.06640625 C-20.89921875 29.98359375 -20.89921875 29.98359375 -21.21484375 28.87890625 C-22.55702937 26.13352656 -23.37041075 25.22935885 -25.67578125 23.390625 C-26.63742188 22.62363281 -27.5990625 21.85664062 -28.58984375 21.06640625 C-28.14024722 18.29389431 -27.68058296 15.52371106 -27.21484375 12.75390625 C-27.02535156 11.57538086 -27.02535156 11.57538086 -26.83203125 10.37304688 C-26.703125 9.61572266 -26.57421875 8.85839844 -26.44140625 8.078125 C-26.32619629 7.38162842 -26.21098633 6.68513184 -26.09228516 5.9675293 C-25.58984375 4.06640625 -25.58984375 4.06640625 -23.58984375 1.06640625 C-21.70483398 0.6340332 -21.70483398 0.6340332 -19.3984375 0.5546875 C-18.5437085 0.51899658 -17.68897949 0.48330566 -16.80834961 0.4465332 C-15.89061768 0.42421631 -14.97288574 0.40189941 -14.02734375 0.37890625 C-12.62270874 0.33092896 -12.62270874 0.33092896 -11.18969727 0.28198242 C-7.46024518 0.16473586 -3.73001799 0.09564149 0 0 Z " fill="#F27E22" transform="translate(134.58984375,20.93359375)"/>
<path d="M0 0 C1.22460938 -0.00644531 2.44921875 -0.01289063 3.7109375 -0.01953125 C5.61746094 0.00947266 5.61746094 0.00947266 7.5625 0.0390625 C8.83351563 0.01972656 10.10453125 0.00039062 11.4140625 -0.01953125 C13.25097656 -0.00986328 13.25097656 -0.00986328 15.125 0 C16.24003906 0.00563965 17.35507813 0.0112793 18.50390625 0.01708984 C22.60985955 0.88560647 24.08117286 2.31344622 26.5625 5.6640625 C27.14599609 8.83032227 27.14599609 8.83032227 27.0859375 12.35546875 C27.07433594 13.62970703 27.06273437 14.90394531 27.05078125 16.21679688 C27.01315841 17.5533893 26.97539662 18.88997781 26.9375 20.2265625 C26.92097699 21.56703198 26.90663302 22.90753019 26.89453125 24.24804688 C26.73415531 34.80612973 26.73415531 34.80612973 25.5625 38.6640625 C24.5725 38.6640625 23.5825 38.6640625 22.5625 38.6640625 C22.5625 39.3240625 22.5625 39.9840625 22.5625 40.6640625 C20.2525 40.6640625 17.9425 40.6640625 15.5625 40.6640625 C15.5625 36.3740625 15.5625 32.0840625 15.5625 27.6640625 C11.9325 27.6640625 8.3025 27.6640625 4.5625 27.6640625 C4.5625 31.9540625 4.5625 36.2440625 4.5625 40.6640625 C0.6025 40.6640625 -3.3575 40.6640625 -7.4375 40.6640625 C-7.4375 40.0040625 -7.4375 39.3440625 -7.4375 38.6640625 C-8.4275 38.6640625 -9.4175 38.6640625 -10.4375 38.6640625 C-12.05448759 33.33977525 -11.73781067 27.76174435 -11.78759766 22.24682617 C-11.80417932 20.90159837 -11.83149965 19.55645948 -11.86962891 18.21166992 C-11.92456125 16.26013858 -11.94316308 14.30769216 -11.9609375 12.35546875 C-11.98075684 11.19217041 -12.00057617 10.02887207 -12.02099609 8.83032227 C-10.76734199 2.02754397 -6.47412572 0.03274486 0 0 Z M4.5625 17.6640625 C4.8925 19.3140625 5.2225 20.9640625 5.5625 22.6640625 C8.5325 22.6640625 11.5025 22.6640625 14.5625 22.6640625 C14.8925 21.0140625 15.2225 19.3640625 15.5625 17.6640625 C11.9325 17.6640625 8.3025 17.6640625 4.5625 17.6640625 Z " fill="#E3E3E3" transform="translate(105.4375,139.3359375)"/>
<path d="M0 0 C1.62711914 -0.04253906 1.62711914 -0.04253906 3.28710938 -0.0859375 C11.17753062 -0.1053362 11.17753062 -0.1053362 15.2890625 2.70703125 C17.20176873 5.71933291 17.66524943 7.16395568 17.5 10.6875 C17.47808594 11.54730469 17.45617187 12.40710938 17.43359375 13.29296875 C17.0625 15.5 17.0625 15.5 15.0625 17.5 C12.47298555 17.64547834 10.02064609 17.68649052 7.4375 17.625 C3.786875 17.563125 3.786875 17.563125 0.0625 17.5 C0.0625 22.45 0.0625 27.4 0.0625 32.5 C3.3625 32.83 6.6625 33.16 10.0625 33.5 C10.0625 31.52 10.0625 29.54 10.0625 27.5 C8.0825 27.5 6.1025 27.5 4.0625 27.5 C3.5675 25.025 3.5675 25.025 3.0625 22.5 C5.87506281 22.47315688 8.68737241 22.45323812 11.5 22.4375 C12.30244141 22.42912109 13.10488281 22.42074219 13.93164062 22.41210938 C15.97545221 22.4034857 18.01933902 22.4477185 20.0625 22.5 C21.0625 23.5 21.0625 23.5 21.1953125 25.86328125 C21.19273437 26.83652344 21.19015625 27.80976563 21.1875 28.8125 C21.19136719 30.26076172 21.19136719 30.26076172 21.1953125 31.73828125 C21.07878167 34.16143705 20.75491648 36.18644969 20.0625 38.5 C19.0725 38.5 18.0825 38.5 17.0625 38.5 C17.0625 39.16 17.0625 39.82 17.0625 40.5 C13.00578317 40.57431978 8.94933154 40.62868133 4.89208984 40.66479492 C3.51278782 40.67985422 2.13353347 40.70030613 0.75439453 40.72631836 C-1.23123403 40.76282415 -3.21721618 40.77814853 -5.203125 40.79296875 C-6.39711914 40.8086792 -7.59111328 40.82438965 -8.82128906 40.84057617 C-12.31538639 40.45870013 -13.69796675 40.22006303 -15.9375 37.5 C-16.3437245 34.82045125 -16.49893783 32.5549583 -16.46875 29.875 C-16.4725769 29.13169434 -16.47640381 28.38838867 -16.48034668 27.62255859 C-16.48306636 26.05239506 -16.475701 24.48218627 -16.45898438 22.91210938 C-16.43757203 20.50808756 -16.45878034 18.10705382 -16.484375 15.703125 C-16.48173173 14.17707673 -16.47660676 12.65103033 -16.46875 11.125 C-16.47684692 10.40618652 -16.48494385 9.68737305 -16.49328613 8.94677734 C-16.43438083 5.81293999 -16.3392048 3.96240402 -14.24584961 1.55273438 C-9.72421874 -0.50937798 -4.88638289 -0.01157225 0 0 Z " fill="#B3B4B7" transform="translate(157.9375,139.5)"/>
<path d="M0 0 C6.05569409 1.02349759 10.68505939 4.68695352 14.49609375 9.421875 C14.8828125 11.91796875 14.8828125 11.91796875 14.49609375 14.421875 C12.73828125 15.8359375 12.73828125 15.8359375 10.37109375 17.046875 C4.50901623 20.75118939 1.44706781 24.72648675 -0.50390625 31.421875 C-1.67576915 40.8006844 -1.77905338 49.8824039 2.49609375 58.421875 C2.90859375 59.4325 3.32109375 60.443125 3.74609375 61.484375 C6.62875609 66.32312965 10.86012988 69.33123242 15.49609375 72.421875 C14.42428366 78.85273553 14.42428366 78.85273553 12.49609375 81.421875 C9.265625 82.06640625 9.265625 82.06640625 5.30859375 82.234375 C4.01566406 82.30269531 2.72273438 82.37101562 1.390625 82.44140625 C-2.39943766 82.42239891 -5.78063515 82.05449305 -9.50390625 81.421875 C-8.99786633 79.25313248 -8.50406812 77.42219873 -7.50390625 75.421875 C-7.39320074 73.17259952 -7.34938418 70.91992681 -7.3359375 68.66796875 C-7.3297213 67.64104919 -7.3297213 67.64104919 -7.32337952 66.59338379 C-7.31363975 64.34866071 -7.31373334 62.10411611 -7.31640625 59.859375 C-7.31631561 58.71530685 -7.31631561 58.71530685 -7.31622314 57.54812622 C-7.32761351 47.45665741 -7.56993879 37.42385911 -8.37890625 27.359375 C-8.45729736 26.37573975 -8.53568848 25.39210449 -8.61645508 24.37866211 C-9.14267304 18.58320116 -10.12653964 13.07602282 -11.50390625 7.421875 C-12.16390625 7.421875 -12.82390625 7.421875 -13.50390625 7.421875 C-10.37020597 1.15447444 -6.66120815 -0.3563202 0 0 Z " fill="#1BB4AE" transform="translate(99.50390625,38.578125)"/>
<path d="M0 0 C0.75539062 0.02191406 1.51078125 0.04382813 2.2890625 0.06640625 C4.375 0.4375 4.375 0.4375 7.375 2.4375 C7.71557617 4.40869141 7.71557617 4.40869141 7.66796875 6.7890625 C7.65830078 7.63984375 7.64863281 8.490625 7.63867188 9.3671875 C7.61353516 10.25664062 7.58839844 11.14609375 7.5625 12.0625 C7.54219727 13.40828125 7.54219727 13.40828125 7.52148438 14.78125 C7.48606925 17.00059789 7.43668461 19.21875188 7.375 21.4375 C8.66101219 20.38116862 8.66101219 20.38116862 8.4375 17.9609375 C8.416875 16.92195313 8.39625 15.88296875 8.375 14.8125 C8.33109873 10.21384194 8.55350377 5.95572925 9.375 1.4375 C12.05651424 0.69263493 13.78755114 0.24204973 16.46484375 1.1328125 C18.375 2.4375 18.375 2.4375 19.23828125 4.46875 C20.3707412 10.692356 20.35880222 16.18902646 19.375 22.4375 C20.3340625 22.6540625 20.3340625 22.6540625 21.3125 22.875 C23.375 23.4375 23.375 23.4375 24.375 24.4375 C24.52693163 26.55869924 24.59683514 28.68605315 24.625 30.8125 C24.65078125 31.97523438 24.6765625 33.13796875 24.703125 34.3359375 C24.375 37.4375 24.375 37.4375 23.0546875 39.3359375 C20.50635762 41.00716779 18.33809298 40.69516026 15.375 40.4375 C14.375 39.4375 14.375 39.4375 14.27734375 36.71484375 C14.28894531 35.61269531 14.30054688 34.51054687 14.3125 33.375 C14.32152344 32.27027344 14.33054688 31.16554687 14.33984375 30.02734375 C14.35144531 29.17269531 14.36304688 28.31804687 14.375 27.4375 C10.745 27.4375 7.115 27.4375 3.375 27.4375 C3.375 31.7275 3.375 36.0175 3.375 40.4375 C-0.585 40.4375 -4.545 40.4375 -8.625 40.4375 C-8.625 39.7775 -8.625 39.1175 -8.625 38.4375 C-9.615 38.1075 -10.605 37.7775 -11.625 37.4375 C-11.67889087 35.47946493 -11.71774217 33.52101091 -11.75 31.5625 C-11.77320313 30.47195312 -11.79640625 29.38140625 -11.8203125 28.2578125 C-11.625 25.4375 -11.625 25.4375 -9.625 23.4375 C-9.60637935 19.66495582 -9.72950358 15.94138619 -9.96679688 12.17773438 C-10.10570416 7.82886778 -10.04762982 6.01685195 -7.40234375 2.390625 C-4.54538752 0.38151373 -3.41623695 -0.18196451 0 0 Z " fill="#DFDFDF" transform="translate(227.625,139.5625)"/>
<path d="M0 0 C0.87140625 0.03351563 1.7428125 0.06703125 2.640625 0.1015625 C4.75 0.375 4.75 0.375 5.75 1.375 C5.83865208 4.2593382 5.86521296 7.11962158 5.84765625 10.00390625 C5.8462413 10.86813705 5.84482635 11.73236786 5.84336853 12.62278748 C5.83775239 15.39439292 5.82519719 18.1659188 5.8125 20.9375 C5.80748708 22.8118478 5.80292381 24.68619685 5.79882812 26.56054688 C5.78777772 31.16539544 5.7705023 35.77018421 5.75 40.375 C3.81318839 40.45607583 1.8754066 40.51422475 -0.0625 40.5625 C-1.14144531 40.59730469 -2.22039063 40.63210937 -3.33203125 40.66796875 C-6.25 40.375 -6.25 40.375 -8.09521484 39.11035156 C-9.44066557 37.08847761 -9.72425271 35.83509092 -9.9140625 33.421875 C-9.97754883 32.62587891 -10.04103516 31.82988281 -10.10644531 31.00976562 C-10.36782728 26.21242847 -10.55680935 21.4293409 -10.625 16.625 C-10.66238281 15.61050781 -10.69976562 14.59601563 -10.73828125 13.55078125 C-10.79473682 8.77714929 -10.82151542 6.20278211 -8.0546875 2.1953125 C-4.99991103 0.21268599 -3.58948496 -0.20419226 0 0 Z " fill="#BCBDBE" transform="translate(25.25,139.625)"/>
<path d="M0 0 C1.32064453 0.02320313 1.32064453 0.02320313 2.66796875 0.046875 C4.8125 0.25 4.8125 0.25 5.8125 1.25 C5.91350963 3.88120557 5.95220483 6.48558698 5.9453125 9.1171875 C5.94626923 9.90771515 5.94722595 10.6982428 5.94821167 11.51272583 C5.94889359 13.188986 5.94703849 14.86524878 5.94287109 16.54150391 C5.9375371 19.10715695 5.94280833 21.67263379 5.94921875 24.23828125 C5.94855769 25.86458372 5.94727596 27.49088608 5.9453125 29.1171875 C5.94733673 29.88602264 5.94936096 30.65485779 5.95144653 31.44699097 C5.93738979 34.64568594 5.83145245 37.19314266 4.8125 40.25 C1.1825 40.25 -2.4475 40.25 -6.1875 40.25 C-6.1875 39.59 -6.1875 38.93 -6.1875 38.25 C-7.1775 37.92 -8.1675 37.59 -9.1875 37.25 C-9.28636835 32.46287067 -9.35896623 27.67633525 -9.40722656 22.88842773 C-9.42734381 21.25974171 -9.45464137 19.63112792 -9.48925781 18.00268555 C-9.53777429 15.66176542 -9.56046632 13.32179982 -9.578125 10.98046875 C-9.60909271 9.88813179 -9.60909271 9.88813179 -9.64068604 8.77372742 C-9.64292576 3.72914772 -9.64292576 3.72914772 -7.32202148 1.28735352 C-4.71509774 0.0204178 -2.88782963 -0.08531254 0 0 Z " fill="#C7C7C7" transform="translate(199.1875,139.75)"/>
<path d="M0 0 C1.14082031 -0.00386719 2.28164062 -0.00773438 3.45703125 -0.01171875 C5.24560547 0.00568359 5.24560547 0.00568359 7.0703125 0.0234375 C8.25496094 0.01183594 9.43960938 0.00023437 10.66015625 -0.01171875 C11.80355469 -0.00785156 12.94695312 -0.00398437 14.125 0 C15.16897949 0.00338379 16.21295898 0.00676758 17.28857422 0.01025391 C20.6575081 0.46016193 22.54744241 1.27407095 25.1953125 3.3984375 C25.76293945 5.29956055 25.76293945 5.29956055 25.68359375 7.41015625 C25.66748047 8.16748047 25.65136719 8.92480469 25.63476562 9.70507812 C25.57192383 10.88360352 25.57192383 10.88360352 25.5078125 12.0859375 C25.48525391 12.88322266 25.46269531 13.68050781 25.43945312 14.50195312 C25.38058194 16.46825084 25.29090005 18.43358241 25.1953125 20.3984375 C21.23473717 20.48524463 18.61928973 20.50550041 15.1953125 18.3984375 C15.1953125 17.0784375 15.1953125 15.7584375 15.1953125 14.3984375 C11.2353125 14.0684375 7.2753125 13.7384375 3.1953125 13.3984375 C3.1953125 14.7184375 3.1953125 16.0384375 3.1953125 17.3984375 C2.5353125 17.3984375 1.8753125 17.3984375 1.1953125 17.3984375 C1.1953125 18.0584375 1.1953125 18.7184375 1.1953125 19.3984375 C-2.1046875 19.3984375 -5.4046875 19.3984375 -8.8046875 19.3984375 C-8.8856188 16.79364867 -8.94514184 14.19137097 -8.9921875 11.5859375 C-9.02989258 10.47895508 -9.02989258 10.47895508 -9.06835938 9.34960938 C-9.14235275 3.89876422 -9.14235275 3.89876422 -7.64916992 1.6862793 C-5.05358508 -0.12599205 -3.14784393 0.01022502 0 0 Z " fill="#FBFBFB" transform="translate(105.8046875,141.6015625)"/>
<path d="M0 0 C1.01900391 -0.00257813 2.03800781 -0.00515625 3.08789062 -0.0078125 C4.15072266 -0.00007812 5.21355469 0.00765625 6.30859375 0.015625 C7.37529297 0.00789062 8.44199219 0.00015625 9.54101562 -0.0078125 C11.06758789 -0.00394531 11.06758789 -0.00394531 12.625 0 C14.02600952 0.00338379 14.02600952 0.00338379 15.45532227 0.00683594 C17.74609375 0.265625 17.74609375 0.265625 19.74609375 2.265625 C20.32794395 5.92140076 20.48813596 9.56823006 20.74609375 13.265625 C15.46609375 13.265625 10.18609375 13.265625 4.74609375 13.265625 C4.41609375 14.915625 4.08609375 16.565625 3.74609375 18.265625 C-0.21390625 18.265625 -4.17390625 18.265625 -8.25390625 18.265625 C-8.33464828 15.64001391 -8.39426855 13.01686824 -8.44140625 10.390625 C-8.46654297 9.64425781 -8.49167969 8.89789063 -8.51757812 8.12890625 C-8.546875 5.9609375 -8.546875 5.9609375 -8.25390625 2.265625 C-4.93820324 0.05515632 -3.86275856 0.00931828 0 0 Z " fill="#FDFDFD" transform="translate(152.25390625,142.734375)"/>
<path d="M0 0 C3.34987531 1.33289776 4.70263967 2.38403763 6.73046875 5.42578125 C6.66796875 8.48828125 6.66796875 8.48828125 5.73046875 11.42578125 C3.16796875 12.80078125 3.16796875 12.80078125 0.73046875 13.42578125 C1.69984375 14.20953125 2.66921875 14.99328125 3.66796875 15.80078125 C5.57009221 17.3386683 6.62676832 18.21838038 7.73046875 20.42578125 C7.8246392 21.79121884 7.85840502 23.16110486 7.85986328 24.52978516 C7.86301544 25.37892487 7.8661676 26.22806458 7.86941528 27.10293579 C7.86739105 28.02674042 7.86536682 28.95054504 7.86328125 29.90234375 C7.86471634 31.33941177 7.86471634 31.33941177 7.86618042 32.80551147 C7.86686257 34.84495102 7.86500588 36.88439272 7.86083984 38.92382812 C7.85557378 41.98963573 7.86074049 45.05529124 7.8671875 48.12109375 C7.87058884 59.2645758 7.61973352 70.31503574 6.73046875 81.42578125 C6.40046875 81.42578125 6.07046875 81.42578125 5.73046875 81.42578125 C4.8787195 72.04343562 4.73227443 62.99422719 5.32177734 53.59960938 C5.99339262 42.21909935 5.81785681 30.82118466 5.73046875 19.42578125 C5.07046875 19.42578125 4.41046875 19.42578125 3.73046875 19.42578125 C3.73046875 18.76578125 3.73046875 18.10578125 3.73046875 17.42578125 C-2.59414705 15.63579565 -8.71863275 14.88338078 -15.26953125 14.42578125 C-14.60953125 13.43578125 -13.94953125 12.44578125 -13.26953125 11.42578125 C-14.09453125 10.86890625 -14.91953125 10.31203125 -15.76953125 9.73828125 C-18.26953125 7.42578125 -18.26953125 7.42578125 -18.83203125 4.86328125 C-18.26953125 2.42578125 -18.26953125 2.42578125 -16.59765625 0.796875 C-11.80860574 -2.0235222 -5.26298232 -1.33159794 0 0 Z " fill="#F3D308" transform="translate(200.26953125,26.57421875)"/>
<path d="M0 0 C0 3.86695678 -1.41909971 6.5088452 -3 10 C-2.34 10.61875 -1.68 11.2375 -1 11.875 C1 14 1 14 1 16 C-4.20570744 17.00892375 -9.3411777 17.32483292 -14.625 17.5625 C-15.5327417 17.6049585 -16.4404834 17.64741699 -17.37573242 17.69116211 C-26.9178797 18.10009952 -36.45135257 18.09230701 -46 18 C-46.33 17.01 -46.66 16.02 -47 15 C-46.2884375 14.38125 -46.2884375 14.38125 -45.5625 13.75 C-43.82100687 11.7995277 -43.53446781 10.51147981 -43 8 C-42.07775635 8.0314209 -41.1555127 8.0628418 -40.20532227 8.09521484 C-36.74415097 8.19820908 -33.28463465 8.27303766 -29.82250977 8.32958984 C-28.33168658 8.35954481 -26.84103632 8.40032569 -25.35083008 8.45263672 C-17.09349395 8.73498613 -10.3593661 8.91834014 -3.58178711 3.49462891 C-2.36936517 2.34901275 -1.17949212 1.17949212 0 0 Z " fill="#BC6E28" transform="translate(158,103)"/>
<path d="M0 0 C0.76441406 0.00386719 1.52882812 0.00773438 2.31640625 0.01171875 C4.4375 0.3125 4.4375 0.3125 7.4375 2.3125 C7.68619641 5.22580078 7.76384278 7.90670295 7.6875 10.8125 C7.68234375 11.59753906 7.6771875 12.38257813 7.671875 13.19140625 C7.59212412 19.00325176 7.59212412 19.00325176 6.4375 21.3125 C4.6882786 21.39392927 2.93795458 21.45188541 1.1875 21.5 C0.21296875 21.53480469 -0.7615625 21.56960937 -1.765625 21.60546875 C-5.10637429 21.25552993 -6.37264855 20.87585416 -8.5625 18.3125 C-8.97144836 15.64230776 -9.12327709 13.4714977 -9.0625 10.8125 C-9.07796875 10.13574219 -9.0934375 9.45898438 -9.109375 8.76171875 C-9.0843511 5.5899388 -8.9687047 3.76595894 -6.81640625 1.36328125 C-4.33457695 0.20624125 -2.72618253 -0.05996679 0 0 Z " fill="#FDFDFD" transform="translate(227.5625,139.6875)"/>
<path d="M0 0 C1.62711914 -0.04253906 1.62711914 -0.04253906 3.28710938 -0.0859375 C11.17225553 -0.10532323 11.17225553 -0.10532323 15.296875 2.69921875 C17.2365924 5.77615984 17.61407409 7.22638858 17.375 10.8125 C17.32988281 11.69550781 17.28476563 12.57851562 17.23828125 13.48828125 C17.15126953 14.48408203 17.15126953 14.48408203 17.0625 15.5 C16.4025 15.83 15.7425 16.16 15.0625 16.5 C14.86333984 15.32630859 14.86333984 15.32630859 14.66015625 14.12890625 C14.39525391 12.61103516 14.39525391 12.61103516 14.125 11.0625 C13.95097656 10.05316406 13.77695313 9.04382813 13.59765625 8.00390625 C13.31498903 5.5712562 13.31498903 5.5712562 12.0625 4.5 C10.37864925 4.40065224 8.69068403 4.3691995 7.00390625 4.3671875 C5.46573242 4.36525391 5.46573242 4.36525391 3.89648438 4.36328125 C2.81689453 4.36714844 1.73730469 4.37101563 0.625 4.375 C-0.45072266 4.37113281 -1.52644531 4.36726562 -2.63476562 4.36328125 C-3.66150391 4.36457031 -4.68824219 4.36585938 -5.74609375 4.3671875 C-6.69282959 4.36831543 -7.63956543 4.36944336 -8.61499023 4.37060547 C-10.96284473 4.34735284 -10.96284473 4.34735284 -12.9375 5.5 C-13.24991455 8.21446979 -13.45086592 10.83909361 -13.5625 13.5625 C-13.60117188 14.32111328 -13.63984375 15.07972656 -13.6796875 15.86132812 C-13.77423562 17.74047195 -13.85696756 19.62020336 -13.9375 21.5 C-9.9775 21.5 -6.0175 21.5 -1.9375 21.5 C-1.6075 20.84 -1.2775 20.18 -0.9375 19.5 C-0.57148693 26.9422658 -0.57148693 26.9422658 -2.25 29.5 C-3.9375 30.5 -3.9375 30.5 -6.9375 30.5 C-6.9375 31.16 -6.9375 31.82 -6.9375 32.5 C-9.5775 32.83 -12.2175 33.16 -14.9375 33.5 C-17.22835459 28.91829082 -16.212739 22.59273521 -16.25 17.5625 C-16.27900391 16.26119141 -16.30800781 14.95988281 -16.33789062 13.61914062 C-16.35045898 11.75225586 -16.35045898 11.75225586 -16.36328125 9.84765625 C-16.37786377 8.70304932 -16.39244629 7.55844238 -16.4074707 6.37915039 C-15.9375 3.5 -15.9375 3.5 -14.25244141 1.63256836 C-9.77059567 -0.56014229 -4.89619203 -0.01159548 0 0 Z " fill="#D9D9D9" transform="translate(157.9375,139.5)"/>
<path d="M0 0 C0 7.92 0 15.84 0 24 C-11 24 -11 24 -13 23 C-13.11644156 19.91698584 -13.18732432 16.83453877 -13.25 13.75 C-13.28351562 12.87730469 -13.31703125 12.00460938 -13.3515625 11.10546875 C-13.45077212 4.60723848 -13.45077212 4.60723848 -11.109375 1.453125 C-6.49653796 -1.72460718 -6.85991801 -0.97998829 0 0 Z " fill="#FCFDFD" transform="translate(29,143)"/>
<path d="M0 0 C1.98 0 3.96 0 6 0 C6 1.65 6 3.3 6 5 C6.99 4.67 7.98 4.34 9 4 C9.73323796 1.98491642 9.73323796 1.98491642 10 0 C11.98 0 13.96 0 16 0 C16.33 3.63 16.66 7.26 17 11 C19.64 11 22.28 11 25 11 C25.33 10.01 25.66 9.02 26 8 C26.027193 9.58323688 26.04648306 11.16661062 26.0625 12.75 C26.07410156 13.63171875 26.08570312 14.5134375 26.09765625 15.421875 C26.00610065 17.83894273 25.85906399 19.74188893 25 22 C21.5647952 24.29013653 20.014669 24.17842973 16 24 C15.03911617 21.11734851 14.88329059 19.32337729 14.90234375 16.33203125 C14.90556641 15.43935547 14.90878906 14.54667969 14.91210938 13.62695312 C14.92048828 12.69818359 14.92886719 11.76941406 14.9375 10.8125 C14.94201172 9.87212891 14.94652344 8.93175781 14.95117188 7.96289062 C14.96295374 5.64186288 14.97940442 3.32096356 15 1 C13.68 1 12.36 1 11 1 C11.00523682 1.59014893 11.01047363 2.18029785 11.01586914 2.78833008 C11.03666047 5.46304255 11.04966701 8.13773801 11.0625 10.8125 C11.07087891 11.74126953 11.07925781 12.67003906 11.08789062 13.62695312 C11.09111328 14.51962891 11.09433594 15.41230469 11.09765625 16.33203125 C11.10289307 17.15421143 11.10812988 17.9763916 11.11352539 18.82348633 C11 21 11 21 10 24 C8.35 24 6.7 24 5 24 C4.03911617 21.11734851 3.88329059 19.32337729 3.90234375 16.33203125 C3.90556641 15.43935547 3.90878906 14.54667969 3.91210938 13.62695312 C3.92048828 12.69818359 3.92886719 11.76941406 3.9375 10.8125 C3.94201172 9.87212891 3.94652344 8.93175781 3.95117188 7.96289062 C3.96295374 5.64186288 3.97940442 3.32096356 4 1 C2.68 0.67 1.36 0.34 0 0 Z " fill="#AEAEAE" transform="translate(58,156)"/>
<path d="M0 0 C0.99 0 1.98 0 3 0 C3.10808032 7.09727428 2.93854006 13.96094956 2 21 C-1.96 21 -5.92 21 -10 21 C-10 20.34 -10 19.68 -10 19 C-10.99 18.67 -11.98 18.34 -13 18 C-13 12.72 -13 7.44 -13 2 C-9.04 2 -5.08 2 -1 2 C-0.67 1.34 -0.34 0.68 0 0 Z " fill="#ACACAC" transform="translate(55,159)"/>
<path d="M0 0 C0.89203125 0.04511719 1.7840625 0.09023437 2.703125 0.13671875 C3.37859375 0.19472656 4.0540625 0.25273437 4.75 0.3125 C4.77710123 2.8750718 4.79688771 5.43735365 4.8125 8 C4.82087891 8.72123047 4.82925781 9.44246094 4.83789062 10.18554688 C4.85587165 14.12339242 4.53013587 17.41182066 3.75 21.3125 C-0.54 21.3125 -4.83 21.3125 -9.25 21.3125 C-9.35845031 18.74885517 -9.43749744 16.18983721 -9.5 13.625 C-9.53351563 12.90376953 -9.56703125 12.18253906 -9.6015625 11.43945312 C-9.67064195 7.65735312 -9.45933558 5.68465214 -7.5625 2.3125 C-4.7814167 -0.09276123 -3.61382821 -0.23775186 0 0 Z " fill="#FAFAFB" transform="translate(200.25,140.6875)"/>
<path d="M0 0 C0.33 0 0.66 0 1 0 C1.33 6.93 1.66 13.86 2 21 C9.62096281 21.34443007 9.62096281 21.34443007 17 20 C18.73324119 20.08461492 20.46392812 20.23604355 22.1875 20.4375 C23.08855469 20.53933594 23.98960938 20.64117187 24.91796875 20.74609375 C25.60503906 20.82988281 26.29210937 20.91367188 27 21 C27 21.33 27 21.66 27 22 C23.37 22 19.74 22 16 22 C16 26.29 16 30.58 16 35 C12.04 35 8.08 35 4 35 C4 34.34 4 33.68 4 33 C3.01 33 2.02 33 1 33 C-0.12796398 29.39363767 -0.11416035 26.02855996 -0.09765625 22.265625 C-0.09443359 20.97011719 -0.09121094 19.67460937 -0.08789062 18.33984375 C-0.07953598 16.97656183 -0.07107104 15.61328058 -0.0625 14.25 C-0.05748168 12.87109535 -0.05291935 11.49218896 -0.04882812 10.11328125 C-0.03704093 6.74214341 -0.02058635 3.37109372 0 0 Z " fill="#ADAEAF" transform="translate(94,145)"/>
<path d="M0 0 C0.94101563 0.00322266 1.88203125 0.00644531 2.8515625 0.00976562 C3.83640625 0.01814453 4.82125 0.02652344 5.8359375 0.03515625 C6.82851562 0.03966797 7.82109375 0.04417969 8.84375 0.04882812 C11.2995391 0.0606348 13.75520854 0.07710225 16.2109375 0.09765625 C16.5409375 1.08765625 16.8709375 2.07765625 17.2109375 3.09765625 C14.48170362 3.12473795 11.75274113 3.14453472 9.0234375 3.16015625 C8.25451172 3.16853516 7.48558594 3.17691406 6.69335938 3.18554688 C2.72566961 3.20257559 -0.91477484 3.0836974 -4.7890625 2.09765625 C-5.93372088 5.5316314 -5.94885657 8.24126979 -5.99438477 11.86401367 C-6.00428436 12.54720169 -6.01418396 13.23038971 -6.02438354 13.9342804 C-6.05594929 16.19052678 -6.0807364 18.44679422 -6.10546875 20.703125 C-6.12604254 22.26826014 -6.14703912 23.83338977 -6.16844177 25.39851379 C-6.22361859 29.51662741 -6.27304721 33.63479081 -6.32128906 37.75299072 C-6.37153615 41.95581489 -6.42720547 46.15856683 -6.48242188 50.36132812 C-6.58994976 58.60670975 -6.69140663 66.85215183 -6.7890625 75.09765625 C-7.1190625 75.09765625 -7.4490625 75.09765625 -7.7890625 75.09765625 C-11.44071994 60.30690931 -9.92538887 43.29144974 -10.02023315 28.11322021 C-10.03274109 26.35914902 -10.05022223 24.60510593 -10.07278442 22.85113525 C-10.10279942 20.35761382 -10.11258013 17.86477608 -10.1171875 15.37109375 C-10.12948898 14.62506897 -10.14179047 13.87904419 -10.15446472 13.1104126 C-10.13455099 8.36951984 -9.32095247 5.11431554 -6.7890625 1.09765625 C-4.33631109 -0.12871945 -2.7384844 -0.01649689 0 0 Z " fill="#963A66" transform="translate(68.7890625,42.90234375)"/>
<path d="M0 0 C1 1 1 1 1.25 4.75 C1.18747689 8.63337994 0.53635218 10.9388853 -2 14 C-5.66633999 16.87361783 -8.3736285 17.51404128 -13 17 C-15.35858628 14.64141372 -15.36946499 13.92368052 -15.5 10.6875 C-15.45614716 7.96423856 -15.39261082 6.51424792 -13.7265625 4.33203125 C-9.01360007 0.41222591 -6.02926235 -0.2192459 0 0 Z " fill="#EDEFF2" transform="translate(126,61)"/>
<path d="M0 0 C0.33 0 0.66 0 1 0 C1.03738281 0.91523438 1.07476562 1.83046875 1.11328125 2.7734375 C1.17902344 3.96195313 1.24476563 5.15046875 1.3125 6.375 C1.37050781 7.55835938 1.42851562 8.74171875 1.48828125 9.9609375 C1.65714844 10.96382812 1.82601562 11.96671875 2 13 C5.40431947 15.26954631 7.16524202 15.36549949 11.1875 15.625 C12.27417969 15.69976562 13.36085937 15.77453125 14.48046875 15.8515625 C15.72763672 15.92503906 15.72763672 15.92503906 17 16 C15 18 15 18 11.9609375 18.1953125 C10.77757812 18.17210937 9.59421875 18.14890625 8.375 18.125 C7.18648437 18.10695312 5.99796875 18.08890625 4.7734375 18.0703125 C3.85820312 18.04710937 2.94296875 18.02390625 2 18 C2 18.66 2 19.32 2 20 C1.34 20 0.68 20 0 20 C0.33 20.598125 0.66 21.19625 1 21.8125 C2 24 2 24 2 27 C2.556875 26.855625 3.11375 26.71125 3.6875 26.5625 C6.11384195 25.97230872 8.54906345 25.476571 11 25 C11.33 23.35 11.66 21.7 12 20 C15.96 20.33 19.92 20.66 24 21 C24 21.33 24 21.66 24 22 C20.37 22 16.74 22 13 22 C13 26.29 13 30.58 13 35 C9.04 35 5.08 35 1 35 C1 34.34 1 33.68 1 33 C0.01 32.67 -0.98 32.34 -2 32 C-2.05389087 30.04196493 -2.09274217 28.08351091 -2.125 26.125 C-2.14820313 25.03445312 -2.17140625 23.94390625 -2.1953125 22.8203125 C-2 20 -2 20 0 18 C0.27654388 16.06318864 0.27654388 16.06318864 0.1953125 13.8671875 C0.18886719 13.06152344 0.18242187 12.25585938 0.17578125 11.42578125 C0.15064453 10.16314453 0.15064453 10.16314453 0.125 8.875 C0.11146484 7.60076172 0.11146484 7.60076172 0.09765625 6.30078125 C0.07405647 4.20040116 0.03818483 2.10016556 0 0 Z " fill="#919191" transform="translate(218,145)"/>
<path d="M0 0 C0.77784594 5.96348553 -0.85779158 9.54225888 -4.08203125 14.55859375 C-7.86040964 19.36813855 -12.78038268 23.99955768 -19 25 C-20.5396403 25.08933067 -22.082779 25.13015793 -23.625 25.125 C-24.40101563 25.12757812 -25.17703125 25.13015625 -25.9765625 25.1328125 C-28 25 -28 25 -30 24 C-30 23.34 -30 22.68 -30 22 C-28.97519531 21.61328125 -27.95039063 21.2265625 -26.89453125 20.828125 C-25.53367301 20.30255216 -24.17300593 19.77648416 -22.8125 19.25 C-22.13896484 18.99734375 -21.46542969 18.7446875 -20.77148438 18.484375 C-16.5654296 16.84298777 -13.48891802 14.93400784 -10 12 C-9.34 12 -8.68 12 -8 12 C-7.731875 10.7625 -7.46375 9.525 -7.1875 8.25 C-5.11037234 0 -5.11037234 0 0 0 Z " fill="#DFE2E7" transform="translate(156,80)"/>
<path d="M0 0 C4.79544997 3.63792756 6.02411184 8.29210737 7 14 C8.10187707 25.44870204 7.51675654 35.52184688 0.1875 44.875 C-3.42504464 49.09140108 -7.48107876 51.73334129 -13.00268555 52.31787109 C-16.48935484 52.39317931 -19.95150185 52.34889356 -23.4375 52.25 C-24.64599609 52.23195312 -25.85449219 52.21390625 -27.09960938 52.1953125 C-30.06723184 52.14839357 -33.03319661 52.08275602 -36 52 C-36 51.67 -36 51.34 -36 51 C-27.09 50.67 -18.18 50.34 -9 50 C-9 49.34 -9 48.68 -9 48 C-8.01 48 -7.02 48 -6 48 C-6 47.34 -6 46.68 -6 46 C-7.32 46 -8.64 46 -10 46 C-10 44 -10 44 -8 42 C-7.67 40.68 -7.34 39.36 -7 38 C-3.7 38 -0.4 38 3 38 C3.92159579 31.78829926 4.12177385 25.77390894 4.0625 19.5 C4.05798828 18.5821875 4.05347656 17.664375 4.04882812 16.71875 C4.03716326 14.47909609 4.02079614 12.23958455 4 10 C3.34 10 2.68 10 2 10 C1.34 6.7 0.68 3.4 0 0 Z " fill="#191B24" transform="translate(157,60)"/>
<path d="M0 0 C9.84836733 9.84836733 6.21299726 36.82617143 6.29754639 49.96347046 C6.30747366 51.48143149 6.32196131 52.99936991 6.34112549 54.51724243 C6.3648951 56.66284777 6.36742548 58.80741234 6.36328125 60.953125 C6.36626221 62.19223633 6.36924316 63.43134766 6.37231445 64.70800781 C5.97307118 68.2381037 5.05153346 70.13985519 3 73 C2.34 72.67 1.68 72.34 1 72 C1.16200394 71.42266617 1.32400787 70.84533234 1.49092102 70.25050354 C1.98206583 68.07928221 2.13281866 66.2118402 2.14526367 63.99194336 C2.15164352 63.21270004 2.15802338 62.43345673 2.16459656 61.63059998 C2.16570938 60.79215042 2.1668222 59.95370087 2.16796875 59.08984375 C2.17129715 58.20833145 2.17462555 57.32681915 2.17805481 56.41859436 C2.18311866 54.54493733 2.1854633 52.67127129 2.18530273 50.79760742 C2.18745224 47.99967361 2.2055088 45.20215896 2.22460938 42.40429688 C2.25655118 31.8465366 1.72999643 21.54724236 0.4309082 11.06860352 C-0.01308179 7.35134885 -0.07795372 3.74147053 0 0 Z " fill="#CF5AA0" transform="translate(87,46)"/>
<path d="M0 0 C2.0625 1.625 2.0625 1.625 4 4 C4.0625 7.125 4.0625 7.125 3 10 C0.4375 11.375 0.4375 11.375 -2 12 C-1.030625 12.78375 -0.06125 13.5675 0.9375 14.375 C2.83962346 15.91288705 3.89629957 16.79259913 5 19 C5.09417045 20.36543759 5.12793627 21.73532361 5.12939453 23.10400391 C5.13254669 23.95314362 5.13569885 24.80228333 5.13894653 25.67715454 C5.1369223 26.60095917 5.13489807 27.52476379 5.1328125 28.4765625 C5.13424759 29.91363052 5.13424759 29.91363052 5.13571167 31.37973022 C5.13639382 33.41916977 5.13453713 35.45861147 5.13037109 37.49804688 C5.12510503 40.56385448 5.13027174 43.62950999 5.13671875 46.6953125 C5.14012009 57.83879455 4.88926477 68.88925449 4 80 C3.67 80 3.34 80 3 80 C2.14825075 70.61765437 2.00180568 61.56844594 2.59130859 52.17382812 C3.26292387 40.7933181 3.08738806 29.39540341 3 18 C2.34 18 1.68 18 1 18 C1 17.34 1 16.68 1 16 C-5.3246158 14.2100144 -11.4491015 13.45759953 -18 13 C-15.03875445 10.03875445 -12.1981502 10.04042342 -8.10546875 9.90234375 C-6.66107422 9.91974609 -6.66107422 9.91974609 -5.1875 9.9375 C-4.21167969 9.94652344 -3.23585937 9.95554687 -2.23046875 9.96484375 C-1.12638672 9.98224609 -1.12638672 9.98224609 0 10 C0 6.7 0 3.4 0 0 Z " fill="#9D851B" transform="translate(203,28)"/>
<path d="M0 0 C0.33 0 0.66 0 1 0 C1.02477373 4.05679377 1.04289493 8.11355806 1.05493164 12.17041016 C1.05995118 13.54964973 1.06676819 14.92888402 1.07543945 16.30810547 C1.0876092 18.29392183 1.09271633 20.27977749 1.09765625 22.265625 C1.10289307 23.45961914 1.10812988 24.65361328 1.11352539 25.88378906 C1.01941946 28.46694617 0.76626155 30.55008419 0 33 C-0.99 33 -1.98 33 -3 33 C-3 33.66 -3 34.32 -3 35 C-5.31 35 -7.62 35 -10 35 C-10.08086147 33.20906809 -10.13912702 31.41710372 -10.1875 29.625 C-10.22230469 28.62726563 -10.25710937 27.62953125 -10.29296875 26.6015625 C-10.14794922 25.31378906 -10.14794922 25.31378906 -10 24 C-6.5647952 21.70986347 -5.014669 21.82157027 -1 22 C-1 20.68 -1 19.36 -1 18 C-4.3 18 -7.6 18 -11 18 C-10.505 16.515 -10.505 16.515 -10 15 C-6.7 15.66 -3.4 16.32 0 17 C0 11.39 0 5.78 0 0 Z " fill="#8F9090" transform="translate(131,145)"/>
<path d="M0 0 C1.98 0 3.96 0 6 0 C6 1.65 6 3.3 6 5 C9.11332248 4.33131686 9.11332248 4.33131686 10.1875 1.9375 C10.455625 1.298125 10.72375 0.65875 11 0 C11.02901394 3.4374823 11.04680335 6.87493312 11.0625 10.3125 C11.07087891 11.28896484 11.07925781 12.26542969 11.08789062 13.27148438 C11.09111328 14.20927734 11.09433594 15.14707031 11.09765625 16.11328125 C11.10289307 16.97735596 11.10812988 17.84143066 11.11352539 18.73168945 C11 21 11 21 10 24 C8.35 24 6.7 24 5 24 C4.03911617 21.11734851 3.88329059 19.32337729 3.90234375 16.33203125 C3.90556641 15.43935547 3.90878906 14.54667969 3.91210938 13.62695312 C3.92048828 12.69818359 3.92886719 11.76941406 3.9375 10.8125 C3.94201172 9.87212891 3.94652344 8.93175781 3.95117188 7.96289062 C3.96295374 5.64186288 3.97940442 3.32096356 4 1 C2.68 0.67 1.36 0.34 0 0 Z " fill="#CFCFD1" transform="translate(58,156)"/>
<path d="M0 0 C0.33 0.66 0.66 1.32 1 2 C2.32303717 2.3721042 3.65737935 2.70630173 5 3 C6.86916794 4.86916794 6.21688008 7.87444574 6.25 10.375 C6.28867188 12.11910156 6.28867188 12.11910156 6.328125 13.8984375 C6 17 6 17 4.6796875 18.8984375 C2.13135762 20.56966779 -0.03690702 20.25766026 -3 20 C-4 19 -4 19 -4.09765625 16.27734375 C-4.08605469 15.17519531 -4.07445312 14.07304687 -4.0625 12.9375 C-4.05347656 11.83277344 -4.04445312 10.72804687 -4.03515625 9.58984375 C-4.02355469 8.73519531 -4.01195312 7.88054687 -4 7 C-1.69 7 0.62 7 3 7 C2.73323796 5.01508358 2.73323796 5.01508358 2 3 C1.01 2.67 0.02 2.34 -1 2 C-0.67 1.34 -0.34 0.68 0 0 Z " fill="#8F8F90" transform="translate(246,160)"/>
<path d="M0 0 C5.28 0 10.56 0 16 0 C16 0.33 16 0.66 16 1 C11.05 1 6.1 1 1 1 C1 4.63 1 8.26 1 12 C0.34 12 -0.32 12 -1 12 C-0.979375 12.78375 -0.95875 13.5675 -0.9375 14.375 C-1 17 -1 17 -2 19 C-5.0625 19.625 -5.0625 19.625 -8 20 C-8 20.66 -8 21.32 -8 22 C4.87 22.495 4.87 22.495 18 23 C18 23.33 18 23.66 18 24 C13.94328317 24.07431978 9.88683154 24.12868133 5.82958984 24.16479492 C4.45028782 24.17985422 3.07103347 24.20030613 1.69189453 24.22631836 C-0.29373403 24.26282415 -2.27971618 24.27814853 -4.265625 24.29296875 C-5.45961914 24.3086792 -6.65361328 24.32438965 -7.88378906 24.34057617 C-11.2671035 23.97080779 -12.6712464 23.45460326 -15 21 C-15.25 17.8125 -15.25 17.8125 -15 15 C-14.67 15.66 -14.34 16.32 -14 17 C-13.34 16.67 -12.68 16.34 -12 16 C-10.00039988 15.960008 -7.99952758 15.95653201 -6 16 C-6 15.34 -6 14.68 -6 14 C-5.01 14 -4.02 14 -3 14 C-2.67 13.01 -2.34 12.02 -2 11 C-1.34 11 -0.68 11 0 11 C0 7.37 0 3.74 0 0 Z " fill="#959697" transform="translate(157,156)"/>
<path d="M0 0 C4.95 0 9.9 0 15 0 C15.125 7.625 15.125 7.625 14 11 C11.36 11 8.72 11 6 11 C6 8.69 6 6.38 6 4 C4.02 4 2.04 4 0 4 C0 2.68 0 1.36 0 0 Z " fill="#DDDEDF" transform="translate(163,162)"/>
<path d="M0 0 C1.98 0 3.96 0 6 0 C7 1 7 1 7.11352539 2.76586914 C7.10828857 3.51473389 7.10305176 4.26359863 7.09765625 5.03515625 C7.09282227 6.24848633 7.09282227 6.24848633 7.08789062 7.48632812 C7.07951172 8.33646484 7.07113281 9.18660156 7.0625 10.0625 C7.05798828 10.91650391 7.05347656 11.77050781 7.04882812 12.65039062 C7.03700373 14.76695663 7.01906769 16.88348685 7 19 C5.02 19 3.04 19 1 19 C0.67 12.73 0.34 6.46 0 0 Z " fill="#F9F9FA" transform="translate(238,142)"/>
<path d="M0 0 C2.15478516 -0.34057617 2.15478516 -0.34057617 4.7890625 -0.29296875 C5.73007813 -0.28330078 6.67109375 -0.27363281 7.640625 -0.26367188 C9.11789063 -0.2259668 9.11789063 -0.2259668 10.625 -0.1875 C11.61757812 -0.17396484 12.61015625 -0.16042969 13.6328125 -0.14648438 C16.08908072 -0.11105743 18.54427285 -0.06166196 21 0 C16.63421082 2.3545435 12.88318223 2.32436156 7.97265625 2.4609375 C4.20492304 3.14417953 2.57727496 4.17241416 0 7 C-0.81567178 10.25550916 -0.81567178 10.25550916 -0.8125 13.75 C-0.86019531 14.92046875 -0.90789062 16.0909375 -0.95703125 17.296875 C-0.97121094 18.18890625 -0.98539062 19.0809375 -1 20 C-0.360625 20.309375 0.27875 20.61875 0.9375 20.9375 C3 22 3 22 4 23 C4.04080783 24.99958364 4.04254356 27.00045254 4 29 C4.66 29.33 5.32 29.66 6 30 C5.01 30 4.02 30 3 30 C2.690625 28.9171875 2.690625 28.9171875 2.375 27.8125 C1.03281438 25.06712031 0.219433 24.1629526 -2.0859375 22.32421875 C-3.04757813 21.55722656 -4.00921875 20.79023437 -5 20 C-4.55040347 17.22748806 -4.09073921 14.45730481 -3.625 11.6875 C-3.43550781 10.50897461 -3.43550781 10.50897461 -3.2421875 9.30664062 C-3.11328125 8.54931641 -2.984375 7.79199219 -2.8515625 7.01171875 C-2.73635254 6.31522217 -2.62114258 5.61872559 -2.50244141 4.90112305 C-2 3 -2 3 0 0 Z " fill="#C56E26" transform="translate(111,22)"/>
<path d="M0 0 C1.33804688 0.04060547 1.33804688 0.04060547 2.703125 0.08203125 C3.37859375 0.11683594 4.0540625 0.15164062 4.75 0.1875 C4.75 0.5175 4.75 0.8475 4.75 1.1875 C3.5125 1.31125 2.275 1.435 1 1.5625 C-2.45672799 1.9081728 -3.93890596 2.53195298 -7.25 4.1875 C-7.58 10.1275 -7.91 16.0675 -8.25 22.1875 C-3.96 22.1875 0.33 22.1875 4.75 22.1875 C4.75 20.5375 4.75 18.8875 4.75 17.1875 C5.08 17.1875 5.41 17.1875 5.75 17.1875 C5.77902429 20.45831471 5.79680684 23.7290963 5.8125 27 C5.82087891 27.92876953 5.82925781 28.85753906 5.83789062 29.81445312 C5.84111328 30.70712891 5.84433594 31.59980469 5.84765625 32.51953125 C5.85289307 33.34171143 5.85812988 34.1638916 5.86352539 35.01098633 C5.75 37.1875 5.75 37.1875 4.75 40.1875 C1.12 40.1875 -2.51 40.1875 -6.25 40.1875 C-6.25 39.5275 -6.25 38.8675 -6.25 38.1875 C-6.91 37.8575 -7.57 37.5275 -8.25 37.1875 C-7.26 37.1875 -6.27 37.1875 -5.25 37.1875 C-5.25 37.8475 -5.25 38.5075 -5.25 39.1875 C-2.28 39.1875 0.69 39.1875 3.75 39.1875 C3.42 37.8675 3.09 36.5475 2.75 35.1875 C2.09 34.8575 1.43 34.5275 0.75 34.1875 C1.41 34.1875 2.07 34.1875 2.75 34.1875 C2.75 33.5275 2.75 32.8675 2.75 32.1875 C2.09 31.8575 1.43 31.5275 0.75 31.1875 C2.07 31.1875 3.39 31.1875 4.75 31.1875 C4.75 28.5475 4.75 25.9075 4.75 23.1875 C0.46 23.1875 -3.83 23.1875 -8.25 23.1875 C-8.25 24.8375 -8.25 26.4875 -8.25 28.1875 C-8.58 28.1875 -8.91 28.1875 -9.25 28.1875 C-9.36591764 24.08356988 -9.43715601 19.98005894 -9.5 15.875 C-9.53351563 14.70775391 -9.56703125 13.54050781 -9.6015625 12.33789062 C-9.61445313 11.21962891 -9.62734375 10.10136719 -9.640625 8.94921875 C-9.66157227 7.91756592 -9.68251953 6.88591309 -9.70410156 5.82299805 C-9.25 3.1875 -9.25 3.1875 -7.38671875 1.34570312 C-4.74148899 -0.08813714 -2.98949057 -0.11800621 0 0 Z " fill="#C0C1C0" transform="translate(199.25,139.8125)"/>
<path d="M0 0 C1.60246582 0.10211792 1.60246582 0.10211792 3.23730469 0.20629883 C4.97753906 0.29814453 4.97753906 0.29814453 6.75292969 0.3918457 C8.56277344 0.52623047 8.56277344 0.52623047 10.40917969 0.66333008 C11.63121094 0.73358398 12.85324219 0.80383789 14.11230469 0.8762207 C17.13012249 1.05304597 20.14440996 1.25374584 23.15917969 1.47583008 C23.15917969 2.13583008 23.15917969 2.79583008 23.15917969 3.47583008 C24.14917969 3.80583008 25.13917969 4.13583008 26.15917969 4.47583008 C15.14358731 5.13347738 4.19831913 5.63790553 -6.84082031 5.47583008 C-3.66912327 0.61456869 -3.66912327 0.61456869 0 0 Z " fill="#ED7E24" transform="translate(119.8408203125,113.524169921875)"/>
<path d="M0 0 C5.68864546 0.01564964 11.15127056 0.28359391 16.77734375 1.1328125 C16.77734375 2.4528125 16.77734375 3.7728125 16.77734375 5.1328125 C13.80734375 5.7928125 10.83734375 6.4528125 7.77734375 7.1328125 C7.77734375 6.1428125 7.77734375 5.1528125 7.77734375 4.1328125 C7.21789062 4.14441406 6.6584375 4.15601563 6.08203125 4.16796875 C-1.38888929 4.25204663 -8.77874911 3.73347359 -16.22265625 3.1328125 C-16.22265625 2.4728125 -16.22265625 1.8128125 -16.22265625 1.1328125 C-15.29582031 1.14441406 -14.36898437 1.15601563 -13.4140625 1.16796875 C-11.61775391 1.18150391 -11.61775391 1.18150391 -9.78515625 1.1953125 C-7.99271484 1.21271484 -7.99271484 1.21271484 -6.1640625 1.23046875 C-2.97687794 1.12465253 -2.93099776 0.17513871 0 0 Z " fill="#E4E5E4" transform="translate(113.22265625,161.8671875)"/>
<path d="M0 0 C3.53265581 5.29898372 3.28505525 10.39482415 2.125 16.4375 C1.17348928 20.82651072 1.17348928 20.82651072 0 22 C-2.67058851 22.14115161 -5.32432238 22.04247107 -8 22 C-10.23016691 15.30949926 -9.52414283 6.85864272 -8 0 C-5.06791253 -1.46604374 -3.11702298 -0.77925574 0 0 Z M-7 1 C-6.67 7.27 -6.34 13.54 -6 20 C-4.02 20 -2.04 20 0 20 C0.02683987 17.02077407 0.04676037 14.04178705 0.0625 11.0625 C0.07087891 10.21236328 0.07925781 9.36222656 0.08789062 8.48632812 C0.09111328 7.67744141 0.09433594 6.86855469 0.09765625 6.03515625 C0.10551147 4.91185913 0.10551147 4.91185913 0.11352539 3.76586914 C0.19341752 1.97332261 0.19341752 1.97332261 -1 1 C-2.98 1 -4.96 1 -7 1 Z " fill="#B2B3B3" transform="translate(245,141)"/>
<path d="M0 0 C1.40668945 0.00966797 1.40668945 0.00966797 2.84179688 0.01953125 C4.30649414 0.04466797 4.30649414 0.04466797 5.80078125 0.0703125 C6.78884766 0.07933594 7.77691406 0.08835938 8.79492188 0.09765625 C11.2346189 0.1212282 13.67382822 0.15413228 16.11328125 0.1953125 C16.44328125 1.1853125 16.77328125 2.1753125 17.11328125 3.1953125 C14.38404737 3.2223942 11.65508488 3.24219097 8.92578125 3.2578125 C8.15685547 3.26619141 7.38792969 3.27457031 6.59570312 3.28320312 C2.62801336 3.30023184 -1.01243109 3.18135365 -4.88671875 2.1953125 C-5.84189408 5.0608385 -6.03726073 6.96052571 -6.09204102 9.94213867 C-6.11198624 10.90290817 -6.13193146 11.86367767 -6.15248108 12.8535614 C-6.16919357 13.88801895 -6.18590607 14.9224765 -6.203125 15.98828125 C-6.2239061 17.04944656 -6.24468719 18.11061188 -6.26609802 19.20393372 C-6.33153113 22.59682687 -6.39044968 25.989798 -6.44921875 29.3828125 C-6.49240989 31.68164872 -6.53602437 33.98047703 -6.58007812 36.27929688 C-6.68720615 41.9178861 -6.78898426 47.55655306 -6.88671875 53.1953125 C-7.21671875 53.1953125 -7.54671875 53.1953125 -7.88671875 53.1953125 C-7.96259333 45.96881818 -8.01524426 38.74242601 -8.05151367 31.515625 C-8.06662863 29.05562502 -8.08712102 26.59565209 -8.11303711 24.13574219 C-8.14930105 20.60605198 -8.16641789 17.07671706 -8.1796875 13.546875 C-8.19517136 12.44163483 -8.21065521 11.33639465 -8.22660828 10.19766235 C-8.22683487 9.17675507 -8.22706146 8.15584778 -8.22729492 7.10400391 C-8.23395676 6.20243561 -8.24061859 5.30086731 -8.2474823 4.37197876 C-8.12843033 3.65367889 -8.00937836 2.93537903 -7.88671875 2.1953125 C-4.63281887 0.02604591 -3.75275918 -0.04548799 0 0 Z " fill="#D24A8A" transform="translate(68.88671875,42.8046875)"/>
<path d="M0 0 C0.6965419 -0.00191345 1.3930838 -0.0038269 2.11073303 -0.00579834 C3.58253338 -0.007158 5.05434581 -0.00347682 6.52612305 0.00488281 C8.77355052 0.01556981 11.02017576 0.004989 13.26757812 -0.0078125 C14.69922051 -0.00649055 16.13086239 -0.00392742 17.5625 0 C18.8630835 0.00225586 20.16366699 0.00451172 21.50366211 0.00683594 C24.5849324 0.24529301 26.27819498 0.62981182 28.84765625 2.265625 C28.84765625 2.925625 28.84765625 3.585625 28.84765625 4.265625 C28.18765625 4.265625 27.52765625 4.265625 26.84765625 4.265625 C26.84765625 3.605625 26.84765625 2.945625 26.84765625 2.265625 C22.20252464 2.35918943 17.55791245 2.46528909 12.91333008 2.58300781 C11.33333174 2.62128721 9.75324656 2.65614197 8.1730957 2.6875 C5.9015398 2.73317376 3.63058116 2.79116284 1.359375 2.8515625 C0.65302414 2.86311371 -0.05332672 2.87466492 -0.78108215 2.88656616 C-4.42975768 2.99633548 -6.03447921 3.18704864 -9.15234375 5.265625 C-10.1698693 7.90609752 -10.1698693 7.90609752 -10.83984375 10.890625 C-11.21689453 12.39496094 -11.21689453 12.39496094 -11.6015625 13.9296875 C-11.78332031 14.70054687 -11.96507812 15.47140625 -12.15234375 16.265625 C-12.48234375 16.265625 -12.81234375 16.265625 -13.15234375 16.265625 C-13.71941692 6.6253811 -13.71941692 6.6253811 -10.15234375 2.265625 C-6.42314821 -0.22050536 -4.45262819 0.00772978 0 0 Z " fill="#777779" transform="translate(54.15234375,139.734375)"/>
<path d="M0 0 C4.79544997 3.63792756 6.02411184 8.29210737 7 14 C7.96000817 23.97465855 8.22480584 34.51709643 1.62109375 42.7109375 C0.25 44.125 0.25 44.125 -2 46 C-2.36625971 41.48279689 -2.36625971 41.48279689 -0.625 39.1875 C1 38 1 38 3 38 C3.92159579 31.78829926 4.12177385 25.77390894 4.0625 19.5 C4.05798828 18.5821875 4.05347656 17.664375 4.04882812 16.71875 C4.03716326 14.47909609 4.02079614 12.23958455 4 10 C3.34 10 2.68 10 2 10 C1.34 6.7 0.68 3.4 0 0 Z " fill="#251E19" transform="translate(157,60)"/>
<path d="M0 0 C9.84836733 9.84836733 6.21299726 36.82617143 6.29754639 49.96347046 C6.30747366 51.48143149 6.32196131 52.99936991 6.34112549 54.51724243 C6.3648951 56.66284777 6.36742548 58.80741234 6.36328125 60.953125 C6.36626221 62.19223633 6.36924316 63.43134766 6.37231445 64.70800781 C5.97307118 68.2381037 5.05153346 70.13985519 3 73 C2.34 72.67 1.68 72.34 1 72 C2.875 67.125 2.875 67.125 4 66 C4.2652452 62.21702388 4.19021275 58.416062 4.1875 54.625 C4.18669434 53.47136963 4.18588867 52.31773926 4.18505859 51.12915039 C4.12593638 42.54077926 3.74598404 34.00292005 3.125 25.4375 C3.04660889 24.32777832 2.96821777 23.21805664 2.88745117 22.07470703 C2.44881422 16.55620844 1.78881004 11.28568206 0.39794922 5.92211914 C0 4 0 4 0 0 Z " fill="#887CA4" transform="translate(87,46)"/>
<path d="M0 0 C0.33 0 0.66 0 1 0 C1 4.95 1 9.9 1 15 C4.63 15 8.26 15 12 15 C12 16.98 12 18.96 12 21 C10.20841511 21.02696365 8.41671527 21.04637917 6.625 21.0625 C5.62726562 21.07410156 4.62953125 21.08570313 3.6015625 21.09765625 C1 21 1 21 -1 20 C-1.02888514 16.85418577 -1.04675923 13.70840531 -1.0625 10.5625 C-1.07087891 9.66466797 -1.07925781 8.76683594 -1.08789062 7.84179688 C-1.09111328 6.98779297 -1.09433594 6.13378906 -1.09765625 5.25390625 C-1.10551147 4.06776733 -1.10551147 4.06776733 -1.11352539 2.85766602 C-1 1 -1 1 0 0 Z " fill="#E4E5E5" transform="translate(17,146)"/>
<path d="M0 0 C1.720606 5.2510346 0.52807679 10.60188168 0 16 C-3.96 16 -7.92 16 -12 16 C-12 15.34 -12 14.68 -12 14 C-12.66 13.67 -13.32 13.34 -14 13 C-12.58376784 12.94552953 -11.16691809 12.90699492 -9.75 12.875 C-8.96109375 12.85179687 -8.1721875 12.82859375 -7.359375 12.8046875 C-4.79268059 13.0171622 -3.2083933 13.71345895 -1 15 C-1 13.68 -1 12.36 -1 11 C-4.63 11 -8.26 11 -12 11 C-12 10.67 -12 10.34 -12 10 C-8.37 10 -4.74 10 -1 10 C-1 9.34 -1 8.68 -1 8 C-4.63 8 -8.26 8 -12 8 C-12 7.67 -12 7.34 -12 7 C-8.535 6.505 -8.535 6.505 -5 6 C-7.31 5.67 -9.62 5.34 -12 5 C-12 4.67 -12 4.34 -12 4 C-6.06 3.505 -6.06 3.505 0 3 C0 2.01 0 1.02 0 0 Z " fill="#878789" transform="translate(57,164)"/>
<path d="M0 0 C0.33 0 0.66 0 1 0 C1 7.92 1 15.84 1 24 C4.96 24 8.92 24 13 24 C12.67 24.99 12.34 25.98 12 27 C11.01 27 10.02 27 9 27 C9 27.66 9 28.32 9 29 C5.04 29.495 5.04 29.495 1 30 C-0.40912096 27.18175808 -0.11183553 24.82748718 -0.09765625 21.6796875 C-0.09443359 20.42285156 -0.09121094 19.16601562 -0.08789062 17.87109375 C-0.07951172 16.55238281 -0.07113281 15.23367187 -0.0625 13.875 C-0.05748489 12.53515789 -0.05292201 11.195314 -0.04882812 9.85546875 C-0.03701086 6.57026794 -0.02053617 3.28515603 0 0 Z " fill="#BFBFBF" transform="translate(142,143)"/>
<path d="M0 0 C0.33 0 0.66 0 1 0 C0.67 2.64 0.34 5.28 0 8 C-1.32 8.33 -2.64 8.66 -4 9 C-4 10.65 -4 12.3 -4 14 C-4.99 14.33 -5.98 14.66 -7 15 C-7 15.66 -7 16.32 -7 17 C-5.68 17 -4.36 17 -3 17 C-3 17.66 -3 18.32 -3 19 C-6.96 19.495 -6.96 19.495 -11 20 C-10.34 18.35 -9.68 16.7 -9 15 C-10.32 14.67 -11.64 14.34 -13 14 C-12.39671875 13.57589844 -11.7934375 13.15179688 -11.171875 12.71484375 C-5.99812261 8.91797708 -2.73323503 5.82297897 0 0 Z " fill="#17273F" transform="translate(154,89)"/>
<path d="M0 0 C1.84851563 -0.0009668 1.84851563 -0.0009668 3.734375 -0.00195312 C5.01828125 0.01802734 6.3021875 0.03800781 7.625 0.05859375 C8.90890625 0.05150391 10.1928125 0.04441406 11.515625 0.03710938 C21.94093861 0.10799278 21.94093861 0.10799278 25.625 3.49609375 C25.295 4.15609375 24.965 4.81609375 24.625 5.49609375 C24.08673584 5.17084717 23.54847168 4.84560059 22.99389648 4.51049805 C20.08298901 3.26399485 17.88546761 3.25308684 14.72265625 3.265625 C13.58505859 3.26755859 12.44746094 3.26949219 11.27539062 3.27148438 C10.09138672 3.28373047 8.90738281 3.29597656 7.6875 3.30859375 C5.91729492 3.30956055 5.91729492 3.30956055 4.11132812 3.31054688 C-0.86353781 3.33588575 -5.50952259 3.37415215 -10.375 4.49609375 C-7.13303511 0.5103549 -5.07176588 -0.00834172 0 0 Z " fill="#6D6D6E" transform="translate(105.375,139.50390625)"/>
<path d="M0 0 C2.58361518 -0.05407567 5.16609255 -0.093707 7.75 -0.125 C8.84441406 -0.15013672 8.84441406 -0.15013672 9.9609375 -0.17578125 C17.06233639 -0.24033942 17.06233639 -0.24033942 20 2 C21.09506492 5.28519475 21.09960608 7.73663415 21.0625 11.1875 C21.05347656 12.27417969 21.04445312 13.36085938 21.03515625 14.48046875 C21.02355469 15.31191406 21.01195312 16.14335938 21 17 C21.66 17.33 22.32 17.66 23 18 C22.34 19.32 21.68 20.64 21 22 C20.34 22 19.68 22 19 22 C18.95101562 20.87980469 18.90203125 19.75960937 18.8515625 18.60546875 C18.77652144 17.13278797 18.70097418 15.66013293 18.625 14.1875 C18.5940625 13.44951172 18.563125 12.71152344 18.53125 11.95117188 C18.32653852 8.18106885 18.13566173 6.20349259 16 3 C13.24288731 2.45498935 10.65847454 2.07450235 7.875 1.8125 C7.12089844 1.73064453 6.36679688 1.64878906 5.58984375 1.56445312 C3.72783393 1.3641103 1.86404189 1.18045964 0 1 C0 0.67 0 0.34 0 0 Z " fill="#B46922" transform="translate(133,21)"/>
<path d="M0 0 C0.66 0 1.32 0 2 0 C2.33 0.99 2.66 1.98 3 3 C4.65 3.33 6.3 3.66 8 4 C8 6.31 8 8.62 8 11 C10.64 11 13.28 11 16 11 C16.33 7.7 16.66 4.4 17 1 C17.33 1 17.66 1 18 1 C18.02715383 2.74991334 18.04646551 4.49994945 18.0625 6.25 C18.07410156 7.22453125 18.08570313 8.1990625 18.09765625 9.203125 C18.01195577 11.65758678 17.70706066 13.66168914 17 16 C15.68 15.67 14.36 15.34 13 15 C13.99 15 14.98 15 16 15 C16 14.34 16 13.68 16 13 C9.4 12.67 2.8 12.34 -4 12 C-3.67 11.34 -3.34 10.68 -3 10 C0.3 10.33 3.6 10.66 7 11 C7 9.02 7 7.04 7 5 C5.02 5 3.04 5 1 5 C0.67 3.35 0.34 1.7 0 0 Z " fill="#696A6B" transform="translate(161,162)"/>
<path d="M0 0 C1.65 0 3.3 0 5 0 C5 5.94 5 11.88 5 18 C5.99 17.67 6.98 17.34 8 17 C7.67 16.01 7.34 15.02 7 14 C8.32 13.67 9.64 13.34 11 13 C11.125 20.625 11.125 20.625 10 24 C8.35 24 6.7 24 5 24 C4.03911617 21.11734851 3.88329059 19.32337729 3.90234375 16.33203125 C3.90556641 15.43935547 3.90878906 14.54667969 3.91210938 13.62695312 C3.92048828 12.69818359 3.92886719 11.76941406 3.9375 10.8125 C3.94201172 9.87212891 3.94652344 8.93175781 3.95117188 7.96289062 C3.96295374 5.64186288 3.97940442 3.32096356 4 1 C2.68 0.67 1.36 0.34 0 0 Z " fill="#6E6F71" transform="translate(58,156)"/>
<path d="M0 0 C0.33 0 0.66 0 1 0 C1.48273462 7.12033569 1.48273462 7.12033569 -0.43945312 10.62304688 C-3.70559461 13.65500278 -5.39381273 13.52117278 -9.70428467 13.41401672 C-10.58046448 13.36633652 -11.45664429 13.31865631 -12.359375 13.26953125 C-13.26375305 13.24026047 -14.1681311 13.21098969 -15.09991455 13.18083191 C-17.98473817 13.08196382 -20.86667341 12.94770847 -23.75 12.8125 C-25.70694511 12.73919951 -27.66397819 12.66820829 -29.62109375 12.59960938 C-34.41549419 12.42650677 -39.20760891 12.22165915 -44 12 C-44 11.67 -44 11.34 -44 11 C-30.47 11 -16.94 11 -3 11 C-1.04783565 7.09567131 -0.49360009 4.27786748 0 0 Z " fill="#937A15" transform="translate(205,109)"/>
<path d="M0 0 C0.33 0 0.66 0 1 0 C1 1.65 1 3.3 1 5 C4.63 5 8.26 5 12 5 C12.33 6.98 12.66 8.96 13 11 C10.03 11 7.06 11 4 11 C4 10.34 4 9.68 4 9 C2.68 9 1.36 9 0 9 C0 6.03 0 3.06 0 0 Z " fill="#B3B4B5" transform="translate(190,168)"/>
<path d="M0 0 C2.49398934 0.38525039 4.22623937 1.11970809 6.40234375 2.37109375 C6.40234375 2.70109375 6.40234375 3.03109375 6.40234375 3.37109375 C5.66628906 3.42007813 4.93023437 3.4690625 4.171875 3.51953125 C2.70814453 3.63167969 2.70814453 3.63167969 1.21484375 3.74609375 C0.25191406 3.81570312 -0.71101563 3.8853125 -1.703125 3.95703125 C-4.61274563 4.37325228 -6.92656399 5.16983471 -9.59765625 6.37109375 C-9.59765625 8.35109375 -9.59765625 10.33109375 -9.59765625 12.37109375 C-11.59765625 9.37109375 -11.59765625 9.37109375 -11.59765625 7.37109375 C-12.25765625 7.37109375 -12.91765625 7.37109375 -13.59765625 7.37109375 C-10.38534323 0.9464677 -6.72880089 -0.17625519 0 0 Z " fill="#1C9188" transform="translate(99.59765625,38.62890625)"/>
<path d="M0 0 C3.14581423 -0.02888514 6.29159469 -0.04675923 9.4375 -0.0625 C10.33533203 -0.07087891 11.23316406 -0.07925781 12.15820312 -0.08789062 C13.01220703 -0.09111328 13.86621094 -0.09433594 14.74609375 -0.09765625 C15.93223267 -0.10551147 15.93223267 -0.10551147 17.14233398 -0.11352539 C19 0 19 0 20 1 C22.32817964 1.36760731 24.6618385 1.70241581 27 2 C27 2.66 27 3.32 27 4 C27.66 4 28.32 4 29 4 C30.625 6.5 30.625 6.5 32 9 C30.05703381 8.04773306 28.15504844 7.09489108 26.30859375 5.96484375 C18.27073329 1.55157172 8.93329487 2.18175575 0 2 C0 1.34 0 0.68 0 0 Z " fill="#D67931" transform="translate(123,47)"/>
<path d="M0 0 C0.33 0 0.66 0 1 0 C1.0269501 2.93756119 1.04681474 5.87487555 1.0625 8.8125 C1.07087891 9.64587891 1.07925781 10.47925781 1.08789062 11.33789062 C1.09111328 12.14033203 1.09433594 12.94277344 1.09765625 13.76953125 C1.10289307 14.50792236 1.10812988 15.24631348 1.11352539 16.00708008 C1 18 1 18 0 21 C-2.97 21.33 -5.94 21.66 -9 22 C-9 20.02 -9 18.04 -9 16 C-4.545 15.505 -4.545 15.505 0 15 C0 10.05 0 5.1 0 0 Z " fill="#C8C8C8" transform="translate(83,146)"/>
<path d="M0 0 C3.89543877 -0.14553599 7.79017651 -0.23415059 11.6875 -0.3125 C13.34168945 -0.3753418 13.34168945 -0.3753418 15.02929688 -0.43945312 C23.16452089 -0.56234171 23.16452089 -0.56234171 27.25 2.1875 C29.16743217 5.26908742 29.55110967 6.73335502 29.3125 10.3125 C29.24482422 11.63701172 29.24482422 11.63701172 29.17578125 12.98828125 C29.11777344 13.65214844 29.05976563 14.31601563 29 15 C28.01 15.495 28.01 15.495 27 16 C26.90203125 15.24074219 26.8040625 14.48148438 26.703125 13.69921875 C26.55359375 12.70535156 26.4040625 11.71148437 26.25 10.6875 C26.11078125 9.70136719 25.9715625 8.71523437 25.828125 7.69921875 C24.81847042 4.40831631 23.90665248 3.75353797 21 2 C18.59445706 1.50241248 18.59445706 1.50241248 16.015625 1.48828125 C15.08105469 1.45283203 14.14648438 1.41738281 13.18359375 1.38085938 C11.73146484 1.34702148 11.73146484 1.34702148 10.25 1.3125 C9.26644531 1.27833984 8.28289062 1.24417969 7.26953125 1.20898438 C4.84646801 1.12664727 2.42376002 1.05745162 0 1 C0 0.67 0 0.34 0 0 Z " fill="#5C5C5C" transform="translate(146,140)"/>
<path d="M0 0 C1.14275391 0.04253906 1.14275391 0.04253906 2.30859375 0.0859375 C3.45521484 0.10527344 3.45521484 0.10527344 4.625 0.125 C6.74609375 0.4609375 6.74609375 0.4609375 9.74609375 2.4609375 C9.96695015 5.41157898 10.02670364 8.14461981 9.93359375 11.0859375 C9.91329102 12.28863281 9.91329102 12.28863281 9.89257812 13.515625 C9.85718426 15.49768128 9.80337609 17.47939301 9.74609375 19.4609375 C9.41609375 19.4609375 9.08609375 19.4609375 8.74609375 19.4609375 C8.69710937 18.88085938 8.648125 18.30078125 8.59765625 17.703125 C8.1495997 13.02170658 7.44807275 8.88608291 5.74609375 4.4609375 C1.78609375 4.4609375 -2.17390625 4.4609375 -6.25390625 4.4609375 C-2.25390625 0.4609375 -2.25390625 0.4609375 0 0 Z " fill="#A0A1A3" transform="translate(225.25390625,139.5390625)"/>
<path d="M0 0 C0.94875 0.04125 1.8975 0.0825 2.875 0.125 C2.545 1.445 2.215 2.765 1.875 4.125 C2.535 4.125 3.195 4.125 3.875 4.125 C3.875 5.115 3.875 6.105 3.875 7.125 C2.885 7.125 1.895 7.125 0.875 7.125 C0.875 7.785 0.875 8.445 0.875 9.125 C-0.775 9.125 -2.425 9.125 -4.125 9.125 C-4.75 5.75 -4.75 5.75 -5.125 2.125 C-3.125 0.125 -3.125 0.125 0 0 Z " fill="#B7B9B8" transform="translate(126.125,169.875)"/>
<path d="M0 0 C1.546875 0.00580078 1.546875 0.00580078 3.125 0.01171875 C5.92633186 0.30479287 7.61170203 0.87148368 10 2.3125 C8.41058594 2.40337891 8.41058594 2.40337891 6.7890625 2.49609375 C5.40102779 2.58050127 4.01300768 2.66514917 2.625 2.75 C1.92632812 2.78931641 1.22765625 2.82863281 0.5078125 2.86914062 C-3.37360492 3.05530134 -3.37360492 3.05530134 -7 4.3125 C-7 5.6325 -7 6.9525 -7 8.3125 C-4.03 8.8075 -4.03 8.8075 -1 9.3125 C-1 10.3025 -1 11.2925 -1 12.3125 C-6.4 11.7125 -6.4 11.7125 -8.875 10.0625 C-10.45099784 7.61094781 -10.4997811 6.168392 -10 3.3125 C-6.82861188 0.17110137 -4.36988999 -0.07101071 0 0 Z " fill="#A89414" transform="translate(192,25.6875)"/>
<path d="M0 0 C0.33 0 0.66 0 1 0 C1.20003834 5.60107342 0.7931353 10.8230529 0 16.375 C-1.29550851 25.5815691 -1.18152347 34.72213387 -1 44 C-1.66 44 -2.32 44 -3 44 C-6.50538312 36.98923377 -3.43498615 25.62595172 -2.5625 18.1875 C-2.42779297 16.98673828 -2.29308594 15.78597656 -2.15429688 14.54882812 C-1.59508691 9.65233107 -1.02919885 4.82308658 0 0 Z " fill="#FDC80A" transform="translate(176,72)"/>
<path d="M0 0 C0 0.99 0 1.98 0 3 C-0.33 3.33 -0.66 3.66 -1 4 C-1.37095371 6.21272285 -1.68406265 8.4351927 -1.97265625 10.66015625 C-2.06002548 11.32462265 -2.14739471 11.98908905 -2.2374115 12.6736908 C-2.51642847 14.80279556 -2.78952362 16.93261317 -3.0625 19.0625 C-3.25026245 20.5033059 -3.43840849 21.94406187 -3.62695312 23.38476562 C-4.08909326 26.92260778 -4.54592432 30.46111272 -5 34 C-5.33 34 -5.66 34 -6 34 C-6.58357981 6.92838088 -6.58357981 6.92838088 -1.921875 1.64453125 C-1.28765625 1.10183594 -0.6534375 0.55914062 0 0 Z " fill="#F5AE0C" transform="translate(181,43)"/>
<path d="M0 0 C1.65 0 3.3 0 5 0 C5 5.94 5 11.88 5 18 C7.31 18 9.62 18 12 18 C11.01 18.66 10.02 19.32 9 20 C10.65 20.33 12.3 20.66 14 21 C12.875 22.5 12.875 22.5 11 24 C7.8125 24.1875 7.8125 24.1875 5 24 C4.03911617 21.11734851 3.88329059 19.32337729 3.90234375 16.33203125 C3.90556641 15.43935547 3.90878906 14.54667969 3.91210938 13.62695312 C3.92048828 12.69818359 3.92886719 11.76941406 3.9375 10.8125 C3.94201172 9.87212891 3.94652344 8.93175781 3.95117188 7.96289062 C3.96295374 5.64186288 3.97940442 3.32096356 4 1 C2.68 0.67 1.36 0.34 0 0 Z " fill="#646465" transform="translate(69,156)"/>
<path d="M0 0 C1.33224609 0.00193359 1.33224609 0.00193359 2.69140625 0.00390625 C9.20131515 0.09254344 9.20131515 0.09254344 12.625 2.375 C4.705 2.375 -3.215 2.375 -11.375 2.375 C-11.375 3.035 -11.375 3.695 -11.375 4.375 C-12.365 4.375 -13.355 4.375 -14.375 4.375 C-13.715 5.695 -13.055 7.015 -12.375 8.375 C-14.025 10.025 -15.675 11.675 -17.375 13.375 C-17.375 11.725 -17.375 10.075 -17.375 8.375 C-16.715 8.045 -16.055 7.715 -15.375 7.375 C-15.375 6.715 -15.375 6.055 -15.375 5.375 C-16.695 5.045 -18.015 4.715 -19.375 4.375 C-12.78571455 0.83463811 -7.43524947 -0.21053613 0 0 Z " fill="#3D2E26" transform="translate(132.375,48.625)"/>
<path d="M0 0 C0.33 0 0.66 0 1 0 C1.33 6.93 1.66 13.86 2 21 C9.62096281 21.34443007 9.62096281 21.34443007 17 20 C18.73324119 20.08461492 20.46392812 20.23604355 22.1875 20.4375 C23.08855469 20.53933594 23.98960938 20.64117187 24.91796875 20.74609375 C25.60503906 20.82988281 26.29210937 20.91367188 27 21 C27 21.33 27 21.66 27 22 C18.30019136 23.01286753 9.74507107 23.10621544 1 23 C1 24.98 1 26.96 1 29 C0.67 29 0.34 29 0 29 C0 19.43 0 9.86 0 0 Z " fill="#5F6060" transform="translate(94,145)"/>
<path d="M0 0 C5.28 0 10.56 0 16 0 C16 0.33 16 0.66 16 1 C11.05 1 6.1 1 1 1 C1 4.63 1 8.26 1 12 C0.34 12 -0.32 12 -1 12 C-1 13.65 -1 15.3 -1 17 C-7.4 18.23076923 -7.4 18.23076923 -10.4375 17.0625 C-11.2109375 16.5365625 -11.2109375 16.5365625 -12 16 C-10.02 16 -8.04 16 -6 16 C-6 15.34 -6 14.68 -6 14 C-5.01 14 -4.02 14 -3 14 C-2.67 13.01 -2.34 12.02 -2 11 C-1.34 11 -0.68 11 0 11 C0 7.37 0 3.74 0 0 Z " fill="#797979" transform="translate(157,156)"/>
<path d="M0 0 C4.29 0 8.58 0 13 0 C13 0.99 13 1.98 13 3 C11 5 11 5 8.90625 5.23046875 C8.1121875 5.21628906 7.318125 5.20210937 6.5 5.1875 C5.7059375 5.18105469 4.911875 5.17460937 4.09375 5.16796875 C2 5 2 5 0 4 C0 2.68 0 1.36 0 0 Z " fill="#C3C4C4" transform="translate(95,168)"/>
<path d="M0 0 C3.63 0 7.26 0 11 0 C10.67 1.32 10.34 2.64 10 4 C9.01 4 8.02 4 7 4 C7.99 4.66 8.98 5.32 10 6 C6.37 6 2.74 6 -1 6 C-0.67 4.02 -0.34 2.04 0 0 Z " fill="#C7C7C7" transform="translate(219,167)"/>
<path d="M0 0 C3.96 0 7.92 0 12 0 C11.01 0.495 11.01 0.495 10 1 C10 1.66 10 2.32 10 3 C10.99 3 11.98 3 13 3 C13 3.66 13 4.32 13 5 C8.71 5 4.42 5 0 5 C0 3.35 0 1.7 0 0 Z " fill="#C5C5C4" transform="translate(17,169)"/>
<path d="M0 0 C1.65 0 3.3 0 5 0 C5.02710123 2.5625718 5.04688771 5.12485365 5.0625 7.6875 C5.07087891 8.40873047 5.07925781 9.12996094 5.08789062 9.87304688 C5.10587165 13.81089242 4.78013587 17.09932066 4 21 C-0.29 21 -4.58 21 -9 21 C-9 20.67 -9 20.34 -9 20 C-5.04 20 -1.08 20 3 20 C2.82597656 19.15179688 2.65195313 18.30359375 2.47265625 17.4296875 C1.97814151 13.84139045 2.10678663 10.72610117 2.4375 7.125 C2.53933594 5.97257813 2.64117187 4.82015625 2.74609375 3.6328125 C2.82988281 2.76398438 2.91367188 1.89515625 3 1 C2.01 0.67 1.02 0.34 0 0 Z " fill="#D2D2D3" transform="translate(200,141)"/>
<path d="M0 0 C0.33 0.99 0.66 1.98 1 3 C6.94 3.33 12.88 3.66 19 4 C19.33 4.66 19.66 5.32 20 6 C17.64628886 6.1968999 15.2925305 6.38270974 12.9375 6.5625 C10.97103516 6.71912109 10.97103516 6.71912109 8.96484375 6.87890625 C5.07674103 6.99765619 1.80889777 6.66866216 -2 6 C-1.49396008 3.83125748 -1.00016187 2.00032373 0 0 Z " fill="#208980" transform="translate(92,114)"/>
<path d="M0 0 C0.33 0 0.66 0 1 0 C1.02902429 3.27081471 1.04680684 6.5415963 1.0625 9.8125 C1.07087891 10.74126953 1.07925781 11.67003906 1.08789062 12.62695312 C1.09111328 13.51962891 1.09433594 14.41230469 1.09765625 15.33203125 C1.10289307 16.15421143 1.10812988 16.9763916 1.11352539 17.82348633 C1 20 1 20 0 23 C-3.63 23 -7.26 23 -11 23 C-11 22.34 -11 21.68 -11 21 C-11.66 20.67 -12.32 20.34 -13 20 C-12.01 20 -11.02 20 -10 20 C-10 20.66 -10 21.32 -10 22 C-7.03 22 -4.06 22 -1 22 C-1.33 20.68 -1.66 19.36 -2 18 C-2.66 17.67 -3.32 17.34 -4 17 C-3.34 17 -2.68 17 -2 17 C-2 16.34 -2 15.68 -2 15 C-2.66 14.67 -3.32 14.34 -4 14 C-2.68 14 -1.36 14 0 14 C0 9.38 0 4.76 0 0 Z " fill="#848485" transform="translate(204,157)"/>
<path d="M0 0 C4.29 0 8.58 0 13 0 C13 1.32 13 2.64 13 4 C8.71 4 4.42 4 0 4 C0 2.68 0 1.36 0 0 Z " fill="#E2E2E2" transform="translate(191,163)"/>
<path d="M0 0 C4.29 0 8.58 0 13 0 C12.67 1.32 12.34 2.64 12 4 C7.71 4 3.42 4 -1 4 C-0.67 2.68 -0.34 1.36 0 0 Z " fill="#E3E4E4" transform="translate(45,163)"/>
<path d="M0 0 C1.23556641 0.01740234 1.23556641 0.01740234 2.49609375 0.03515625 C3.32238281 0.04417969 4.14867188 0.05320313 5 0.0625 C5.63808594 0.07410156 6.27617188 0.08570313 6.93359375 0.09765625 C6.93359375 1.08765625 6.93359375 2.07765625 6.93359375 3.09765625 C-0.65640625 3.09765625 -8.24640625 3.09765625 -16.06640625 3.09765625 C-16.06640625 2.43765625 -16.06640625 1.77765625 -16.06640625 1.09765625 C-15.13957031 1.10925781 -14.21273437 1.12085938 -13.2578125 1.1328125 C-11.46150391 1.14634766 -11.46150391 1.14634766 -9.62890625 1.16015625 C-7.83646484 1.17755859 -7.83646484 1.17755859 -6.0078125 1.1953125 C-2.86994715 1.0911337 -2.8271022 0.13360596 0 0 Z " fill="#E7E9E8" transform="translate(113.06640625,161.90234375)"/>
<path d="M0 0 C0.94101563 0.00322266 1.88203125 0.00644531 2.8515625 0.00976562 C3.83640625 0.01814453 4.82125 0.02652344 5.8359375 0.03515625 C6.82851562 0.03966797 7.82109375 0.04417969 8.84375 0.04882812 C11.2995391 0.0606348 13.75520854 0.07710225 16.2109375 0.09765625 C16.5409375 1.08765625 16.8709375 2.07765625 17.2109375 3.09765625 C16.56020264 3.09241943 15.90946777 3.08718262 15.23901367 3.08178711 C12.29216476 3.06100687 9.34533127 3.04799275 6.3984375 3.03515625 C5.37427734 3.02677734 4.35011719 3.01839844 3.29492188 3.00976562 C2.31201172 3.00654297 1.32910156 3.00332031 0.31640625 3 C-0.58956299 2.99476318 -1.49553223 2.98952637 -2.42895508 2.98413086 C-4.94190289 2.99844644 -4.94190289 2.99844644 -7.7890625 4.09765625 C-7.4590625 3.10765625 -7.1290625 2.11765625 -6.7890625 1.09765625 C-4.33631109 -0.12871945 -2.7384844 -0.01649689 0 0 Z " fill="#9B3D69" transform="translate(68.7890625,42.90234375)"/>
<path d="M0 0 C8.71700174 -0.14368684 17.31320899 0.28038418 26 1 C24 3 24 3 20.83984375 3.265625 C13.62527711 3.23673785 6.99313431 2.96298507 0 1 C0 0.67 0 0.34 0 0 Z " fill="#9D3B6B" transform="translate(62,118)"/>
<path d="M0 0 C0.33 0 0.66 0 1 0 C1 1.98 1 3.96 1 6 C-4.28 6 -9.56 6 -15 6 C-15.33 7.65 -15.66 9.3 -16 11 C-16.99 10.67 -17.98 10.34 -19 10 C-18.34 9.67 -17.68 9.34 -17 9 C-16.67 7.35 -16.34 5.7 -16 4 C-10.72 4 -5.44 4 0 4 C0 2.68 0 1.36 0 0 Z " fill="#F1F1F1" transform="translate(172,150)"/>
<path d="M0 0 C0.88300781 0.04511719 1.76601563 0.09023437 2.67578125 0.13671875 C3.67158203 0.22373047 3.67158203 0.22373047 4.6875 0.3125 C4.6875 0.6425 4.6875 0.9725 4.6875 1.3125 C3.635625 1.43625 2.58375 1.56 1.5 1.6875 C-1.8032503 2.22901644 -4.36831017 2.75381127 -7.3125 4.3125 C-8.19889389 6.97168166 -8.49239025 8.79314641 -8.62890625 11.54296875 C-8.67080078 12.34541016 -8.71269531 13.14785156 -8.75585938 13.97460938 C-8.79517578 14.80798828 -8.83449219 15.64136719 -8.875 16.5 C-8.91818359 17.34498047 -8.96136719 18.18996094 -9.00585938 19.06054688 C-9.11181518 21.14434433 -9.2126502 23.22840103 -9.3125 25.3125 C-9.6425 25.3125 -9.9725 25.3125 -10.3125 25.3125 C-10.45834064 22.08381254 -10.54674106 18.85597635 -10.625 15.625 C-10.66689453 14.71298828 -10.70878906 13.80097656 -10.75195312 12.86132812 C-10.83503605 8.2917672 -10.80754538 6.01970768 -8.125 2.1875 C-5.02975798 0.12400532 -3.65892282 -0.24392819 0 0 Z " fill="#7A7B7E" transform="translate(25.3125,139.6875)"/>
<path d="M0 0 C2.0625 1.625 2.0625 1.625 4 4 C3.6875 9.3125 3.6875 9.3125 2 11 C-3.99681407 12.17328971 -9.90675749 12.0991667 -16 12 C-16 11.67 -16 11.34 -16 11 C-12.32612505 10.14701624 -8.9552607 9.89210529 -5.1875 9.9375 C-4.21167969 9.94652344 -3.23585937 9.95554687 -2.23046875 9.96484375 C-1.49441406 9.97644531 -0.75835937 9.98804688 0 10 C0 6.7 0 3.4 0 0 Z " fill="#716110" transform="translate(203,28)"/>
<path d="M0 0 C0.33 0 0.66 0 1 0 C1.125 7.625 1.125 7.625 0 11 C-2.64 11 -5.28 11 -8 11 C-8 9.35 -8 7.7 -8 6 C-5.36 6 -2.72 6 0 6 C0 4.02 0 2.04 0 0 Z " fill="#BFC0C1" transform="translate(177,162)"/>
<path d="M0 0 C2.64 0 5.28 0 8 0 C8 1.98 8 3.96 8 6 C2.25 6.125 2.25 6.125 0 5 C0 3.35 0 1.7 0 0 Z " fill="#B5B5B5" transform="translate(243,168)"/>
<path d="M0 0 C1.62463842 -0.05395478 3.24978541 -0.09277195 4.875 -0.125 C6.23238281 -0.15980469 6.23238281 -0.15980469 7.6171875 -0.1953125 C10 0 10 0 12 2 C8.37 2 4.74 2 1 2 C1.33 3.98 1.66 5.96 2 8 C-1.42689636 9.14229879 -3.61102218 8.90861076 -7.1875 8.5625 C-8.27417969 8.46066406 -9.36085938 8.35882813 -10.48046875 8.25390625 C-11.31191406 8.17011719 -12.14335938 8.08632812 -13 8 C-13 7.67 -13 7.34 -13 7 C-7.06 6.505 -7.06 6.505 -1 6 C-0.67 4.02 -0.34 2.04 0 0 Z " fill="#A1A2A2" transform="translate(109,155)"/>
<path d="M0 0 C4.77658069 3.62361294 6.06491388 8.29943793 7 14 C7.33195986 19.66414648 7.17751302 25.33273257 7 31 C6.67 31 6.34 31 6 31 C5.90912109 29.35451172 5.90912109 29.35451172 5.81640625 27.67578125 C5.73195502 26.22134346 5.64730934 24.76691695 5.5625 23.3125 C5.52318359 22.59126953 5.48386719 21.87003906 5.44335938 21.12695312 C5.21814322 17.33292718 4.87160695 13.71348508 4 10 C3.34 10 2.68 10 2 10 C1.34 6.7 0.68 3.4 0 0 Z " fill="#553D18" transform="translate(157,60)"/>
<path d="M0 0 C0 1.65 0 3.3 0 5 C-3.3 5 -6.6 5 -10 5 C-10 4.34 -10 3.68 -10 3 C-10.66 3 -11.32 3 -12 3 C-12 2.34 -12 1.68 -12 1 C-10.18755015 0.83278881 -8.37503867 0.66624559 -6.5625 0.5 C-5.55316406 0.4071875 -4.54382813 0.314375 -3.50390625 0.21875 C-1 0 -1 0 0 0 Z " fill="#B6B6B8" transform="translate(230,174)"/>
<path d="M0 0 C-0.99 0.66 -1.98 1.32 -3 2 C-3 1.34 -3 0.68 -3 0 C-5.58340384 -0.02703562 -8.16652308 -0.04685611 -10.75 -0.0625 C-11.47960937 -0.07087891 -12.20921875 -0.07925781 -12.9609375 -0.08789062 C-16.48670558 -0.10391684 -19.61034916 0.04707287 -23 1 C-17.56246393 -5.5822805 -6.52272047 -4.01398182 0 0 Z " fill="#8E6217" transform="translate(179,37)"/>
<path d="M0 0 C0.33 0 0.66 0 1 0 C1.13277344 1.27875 1.26554687 2.5575 1.40234375 3.875 C1.5806867 5.58333777 1.75907451 7.29167085 1.9375 9 C2.02451172 9.83917969 2.11152344 10.67835937 2.20117188 11.54296875 C2.74128638 16.70406292 3.33875322 21.85299802 4 27 C1.44540344 24.77861169 0.61682587 23.30497734 0 20 C-0.07866959 18.41307361 -0.10784114 16.82321751 -0.09765625 15.234375 C-0.09443359 14.34492187 -0.09121094 13.45546875 -0.08789062 12.5390625 C-0.07532227 11.15847656 -0.07532227 11.15847656 -0.0625 9.75 C-0.05798828 8.81414062 -0.05347656 7.87828125 -0.04882812 6.9140625 C-0.03706918 4.60930959 -0.02063426 2.30468773 0 0 Z " fill="#07545E" transform="translate(98,70)"/>
<path d="M0 0 C0.33 0 0.66 0 1 0 C1 5.94 1 11.88 1 18 C-8.1796875 18.29296875 -8.1796875 18.29296875 -11 18 C-11.66 17.01 -12.32 16.02 -13 15 C-7.92789703 14.75258034 -5.21625619 15.50964109 0 17 C0 11.39 0 5.78 0 0 Z " fill="#7F8083" transform="translate(30,162)"/>
<path d="M0 0 C0.99 0 1.98 0 3 0 C2.67 1.32 2.34 2.64 2 4 C-3.94 4.495 -3.94 4.495 -10 5 C-10.33 5.99 -10.66 6.98 -11 8 C-8.69 8 -6.38 8 -4 8 C-4 8.33 -4 8.66 -4 9 C-10.15234375 9.09765625 -10.15234375 9.09765625 -12 9 C-12.33 8.67 -12.66 8.34 -13 8 C-13 6.02 -13 4.04 -13 2 C-9.04 2 -5.08 2 -1 2 C-0.67 1.34 -0.34 0.68 0 0 Z " fill="#BABBBB" transform="translate(55,159)"/>
<path d="M0 0 C0.5534764 2.07553648 1 3.84365964 1 6 C0.34 6 -0.32 6 -1 6 C-1 6.66 -1 7.32 -1 8 C-4.63 8 -8.26 8 -12 8 C-12 7.67 -12 7.34 -12 7 C-8.535 6.505 -8.535 6.505 -5 6 C-7.31 5.67 -9.62 5.34 -12 5 C-12 4.67 -12 4.34 -12 4 C-6.06 3.505 -6.06 3.505 0 3 C0 2.01 0 1.02 0 0 Z " fill="#999A9A" transform="translate(57,164)"/>
<path d="M0 0 C0.33 0 0.66 0 1 0 C0.67 2.31 0.34 4.62 0 7 C-0.99 7 -1.98 7 -3 7 C-2.34 8.32 -1.68 9.64 -1 11 C-2.32 11 -3.64 11 -5 11 C-5 8.36 -5 5.72 -5 3 C-4.01 2.67 -3.02 2.34 -2 2 C-1.34 1.34 -0.68 0.68 0 0 Z " fill="#B6B8B9" transform="translate(68,163)"/>
<path d="M0 0 C2.58361518 -0.05407567 5.16609255 -0.093707 7.75 -0.125 C8.84441406 -0.15013672 8.84441406 -0.15013672 9.9609375 -0.17578125 C13.8044624 -0.21072239 16.74606772 -0.17499684 20 2 C19.67 3.32 19.34 4.64 19 6 C18.51080078 5.29423828 18.51080078 5.29423828 18.01171875 4.57421875 C14.95809908 2.18468724 11.55366459 2.1686458 7.8125 1.8125 C6.68811523 1.6897168 6.68811523 1.6897168 5.54101562 1.56445312 C3.69524082 1.36459216 1.84774567 1.18073462 0 1 C0 0.67 0 0.34 0 0 Z " fill="#A05E26" transform="translate(133,21)"/>
<path d="M0 0 C0.99 0.33 1.98 0.66 3 1 C2.67 3.97 2.34 6.94 2 10 C1.01 10 0.02 10 -1 10 C-1 10.66 -1 11.32 -1 12 C-3.31 12 -5.62 12 -8 12 C-7.67 11.01 -7.34 10.02 -7 9 C-7 9.66 -7 10.32 -7 11 C-5.35 11 -3.7 11 -2 11 C-2 10.34 -2 9.68 -2 9 C-1.01 9 -0.02 9 1 9 C1 8.01 1 7.02 1 6 C0.34 6 -0.32 6 -1 6 C-0.67 4.02 -0.34 2.04 0 0 Z " fill="#676768" transform="translate(129,168)"/>
<path d="M0 0 C3.96 0 7.92 0 12 0 C12 1.32 12 2.64 12 4 C10.35 4 8.7 4 7 4 C7 3.67 7 3.34 7 3 C4.69 2.67 2.38 2.34 0 2 C0 1.34 0 0.68 0 0 Z " fill="#B7B6B8" transform="translate(44,175)"/>
<path d="M0 0 C0.66 0.33 1.32 0.66 2 1 C1.67 1.66 1.34 2.32 1 3 C0.77049681 5.204364 0.58924067 7.41392173 0.4375 9.625 C0.35371094 10.81351563 0.26992187 12.00203125 0.18359375 13.2265625 C0.12300781 14.14179688 0.06242188 15.05703125 0 16 C-0.66 15.67 -1.32 15.34 -2 15 C-2 10.38 -2 5.76 -2 1 C-1.34 0.67 -0.68 0.34 0 0 Z " fill="#E7E7E7" transform="translate(221,143)"/>
<path d="M0 0 C2.12109375 0.3359375 2.12109375 0.3359375 5.12109375 2.3359375 C4.79109375 3.6559375 4.46109375 4.9759375 4.12109375 6.3359375 C3.79109375 5.3459375 3.46109375 4.3559375 3.12109375 3.3359375 C-3.93541877 3.18618511 -3.93541877 3.18618511 -10.87890625 4.3359375 C-7.73553189 -0.03745292 -5.02091431 -0.08466972 0 0 Z " fill="#606061" transform="translate(229.87890625,139.6640625)"/>
<path d="M0 0 C0.66 0 1.32 0 2 0 C2.33 0.66 2.66 1.32 3 2 C6.3 2 9.6 2 13 2 C13 2.33 13 2.66 13 3 C12.40832031 3.10957031 11.81664063 3.21914063 11.20703125 3.33203125 C6.58654237 4.25914403 2.9123221 5.22351335 -1 8 C-1.04241723 5.66705225 -1.04092937 3.33297433 -1 1 C-0.67 0.67 -0.34 0.34 0 0 Z " fill="#1D2C3F" transform="translate(113,58)"/>
<path d="M0 0 C2.475 0.99 2.475 0.99 5 2 C5 3.32 5 4.64 5 6 C4.01 6.33 3.02 6.66 2 7 C1.01 6.34 0.02 5.68 -1 5 C-0.67 3.35 -0.34 1.7 0 0 Z " fill="#FDDA06" transform="translate(198,29)"/>
<path d="M0 0 C3.96 0 7.92 0 12 0 C11.67 0.99 11.34 1.98 11 3 C4.6 4.23076923 4.6 4.23076923 1.5625 3.0625 C1.046875 2.711875 0.53125 2.36125 0 2 C0 1.34 0 0.68 0 0 Z " fill="#CECECE" transform="translate(143,167)"/>
<path d="M0 0 C0.33 0 0.66 0 1 0 C1.08120751 2.89640118 1.14059421 5.79050912 1.1875 8.6875 C1.21263672 9.50412109 1.23777344 10.32074219 1.26367188 11.16210938 C1.32217012 15.97846486 1.07302376 19.03975154 -2 23 C-2.66 22.67 -3.32 22.34 -4 22 C-2.125 17.125 -2.125 17.125 -1 16 C-0.76321284 13.30764224 -0.57801975 10.63501844 -0.4375 7.9375 C-0.39431641 7.17888672 -0.35113281 6.42027344 -0.30664062 5.63867188 C-0.20026367 3.75934562 -0.09960066 1.87969756 0 0 Z " fill="#9174A1" transform="translate(92,96)"/>
<path d="M0 0 C6.15234375 -0.09765625 6.15234375 -0.09765625 8 0 C9 1 9 1 9.0625 4.0625 C9.041875 5.031875 9.02125 6.00125 9 7 C10.65 7 12.3 7 14 7 C14 7.33 14 7.66 14 8 C11.69 8 9.38 8 7 8 C7 6.02 7 4.04 7 2 C5.02 2 3.04 2 1 2 C0.67 1.34 0.34 0.68 0 0 Z " fill="#E9E9EB" transform="translate(67,154)"/>
<path d="M0 0 C7.425 0.99 7.425 0.99 15 2 C15 3.32 15 4.64 15 6 C14.01 6 13.02 6 12 6 C12 5.34 12 4.68 12 4 C8.37 3.67 4.74 3.34 1 3 C0.67 2.01 0.34 1.02 0 0 Z " fill="#B7B7B7" transform="translate(15,166)"/>
<path d="M0 0 C0.99 0.33 1.98 0.66 3 1 C3 4.63 3 8.26 3 12 C2.01 12 1.02 12 0 12 C0 8.04 0 4.08 0 0 Z " fill="#E9EBEC" transform="translate(231,149)"/>
<path d="M0 0 C0.99 0.33 1.98 0.66 3 1 C3 6.61 3 12.22 3 18 C1.02 18 -0.96 18 -3 18 C-3 17.67 -3 17.34 -3 17 C-1.35 17 0.3 17 2 17 C1.85899143 14.72886197 1.71203245 12.45809275 1.5625 10.1875 C1.48128906 8.92292969 1.40007812 7.65835938 1.31640625 6.35546875 C1.12815453 3.00818107 1.12815453 3.00818107 0 0 Z " fill="#E7E7E7" transform="translate(128,144)"/>
<path d="M0 0 C0 3 0 3 -1.5625 6.5 C-3.39965346 9.88927232 -3.39965346 9.88927232 -2 13 C-3.32 12.67 -4.64 12.34 -6 12 C-5.59791618 6.37082652 -3.71069698 3.99613521 0 0 Z " fill="#DC8F24" transform="translate(158,103)"/>
<path d="M0 0 C2.64 0 5.28 0 8 0 C8 0.66 8 1.32 8 2 C8.66 2 9.32 2 10 2 C11.625 4.5 11.625 4.5 13 7 C12.43796875 6.71382812 11.8759375 6.42765625 11.296875 6.1328125 C8.97129077 4.98584069 6.62229799 3.92160206 4.25 2.875 C3.45078125 2.52179687 2.6515625 2.16859375 1.828125 1.8046875 C1.22484375 1.53914063 0.6215625 1.27359375 0 1 C0 0.67 0 0.34 0 0 Z " fill="#CB752D" transform="translate(142,49)"/>
<path d="M0 0 C0 0.99 0 1.98 0 3 C-0.99 3 -1.98 3 -3 3 C-3 3.66 -3 4.32 -3 5 C-4.65 5 -6.3 5 -8 5 C-7.67 3.68 -7.34 2.36 -7 1 C-2.25 0 -2.25 0 0 0 Z " fill="#BEBDC1" transform="translate(130,174)"/>
<path d="M0 0 C1.33804688 0.04060547 1.33804688 0.04060547 2.703125 0.08203125 C3.37859375 0.11683594 4.0540625 0.15164062 4.75 0.1875 C4.75 0.5175 4.75 0.8475 4.75 1.1875 C3.5125 1.31125 2.275 1.435 1 1.5625 C-2.1023227 1.95784024 -4.65655297 2.32021814 -7.25 4.1875 C-7.58 5.1775 -7.91 6.1675 -8.25 7.1875 C-8.58 5.8675 -8.91 4.5475 -9.25 3.1875 C-6.10408067 0.38704377 -4.182936 -0.16511589 0 0 Z " fill="#727372" transform="translate(199.25,139.8125)"/>
<path d="M0 0 C0.33 0 0.66 0 1 0 C0.73831243 5.32098062 0.73831243 5.32098062 0 8 C-2.4375 10.0625 -2.4375 10.0625 -5 11 C-5.66 10.67 -6.32 10.34 -7 10 C-6.57847656 9.44570312 -6.15695313 8.89140625 -5.72265625 8.3203125 C-5.17480469 7.59585938 -4.62695312 6.87140625 -4.0625 6.125 C-3.51722656 5.40570313 -2.97195312 4.68640625 -2.41015625 3.9453125 C-0.96035376 2.05642921 -0.96035376 2.05642921 0 0 Z " fill="#414B5A" transform="translate(154,89)"/>
<path d="M0 0 C4.75 0.75 4.75 0.75 7 3 C7.125 6.125 7.125 6.125 7 9 C7.66 9.33 8.32 9.66 9 10 C8.01 10 7.02 10 6 10 C5.7525 9.278125 5.505 8.55625 5.25 7.8125 C3.89016326 4.75286734 2.17082246 2.5326262 0 0 Z " fill="#9F8D56" transform="translate(108,42)"/>
<path d="M0 0 C2.31 0.66 4.62 1.32 7 2 C6.01 2.33 5.02 2.66 4 3 C4 3.99 4 4.98 4 6 C2.68 6 1.36 6 0 6 C0 4.02 0 2.04 0 0 Z " fill="#A1A1A2" transform="translate(95,172)"/>
<path d="M0 0 C2.125 0.9375 2.125 0.9375 4 2 C3.67 3.98 3.34 5.96 3 8 C0.65941363 5.87219421 -0.70700306 3.88437779 -2 1 C-1.34 0.67 -0.68 0.34 0 0 Z " fill="#E79B23" transform="translate(155,52)"/>
<path d="M0 0 C2.97 0 5.94 0 9 0 C9 0.66 9 1.32 9 2 C6.03 2.66 3.06 3.32 0 4 C0 2.68 0 1.36 0 0 Z " fill="#DCDDDD" transform="translate(121,165)"/>
<path d="M0 0 C0.33 0 0.66 0 1 0 C1 4.95 1 9.9 1 15 C0.67 15 0.34 15 0 15 C-0.38863565 12.87745145 -0.76053209 10.75183172 -1.125 8.625 C-1.33382812 7.44164062 -1.54265625 6.25828125 -1.7578125 5.0390625 C-1.83773437 4.03617188 -1.91765625 3.03328125 -2 2 C-1.34 1.34 -0.68 0.68 0 0 Z " fill="#DFE3E4" transform="translate(238,146)"/>
<path d="M0 0 C0.33 0 0.66 0 1 0 C1.33 4.29 1.66 8.58 2 13 C0.68 12.67 -0.64 12.34 -2 12 C-1.67 11.34 -1.34 10.68 -1 10 C-0.77377919 8.29636178 -0.59111527 6.58671299 -0.4375 4.875 C-0.35371094 3.96492188 -0.26992187 3.05484375 -0.18359375 2.1171875 C-0.12300781 1.41851563 -0.06242187 0.71984375 0 0 Z " fill="#8F5C25" transform="translate(108,29)"/>
<path d="M0 0 C0 0.99 0 1.98 0 3 C-2.64 3 -5.28 3 -8 3 C-8 2.34 -8 1.68 -8 1 C-5.29120665 -0.35439668 -2.99066732 -0.06501451 0 0 Z " fill="#B9BABB" transform="translate(177,170)"/>
<path d="M0 0 C2.64 0 5.28 0 8 0 C8 0.99 8 1.98 8 3 C2.25 3.125 2.25 3.125 0 2 C0 1.34 0 0.68 0 0 Z " fill="#B2B2B2" transform="translate(75,167)"/>
<path d="M0 0 C4.85077588 1.11940982 7.777893 2.1334716 11 6 C5.64951939 5.62671065 3.49087093 4.0042343 0 0 Z " fill="#08404F" transform="translate(107,105)"/>
<path d="M0 0 C5.02254631 -0.2954439 7.89542386 0.01485372 12 3 C8.52128379 4.15957207 7.65780355 3.77456651 4.3125 2.5625 C3.50425781 2.27503906 2.69601563 1.98757812 1.86328125 1.69140625 C1.24839844 1.46324219 0.63351563 1.23507813 0 1 C0 0.67 0 0.34 0 0 Z " fill="#2E1E1B" transform="translate(140,51)"/>
<path d="M0 0 C0.66 1.32 1.32 2.64 2 4 C-0.875 4.1875 -0.875 4.1875 -4 4 C-4.66 3.01 -5.32 2.02 -6 1 C-3 0 -3 0 0 0 Z " fill="#BCBDC0" transform="translate(28,175)"/>
<path d="M0 0 C0.99 0.33 1.98 0.66 3 1 C2.34 1 1.68 1 1 1 C1 1.66 1 2.32 1 3 C0.01 3.66 -0.98 4.32 -2 5 C-3.19232613 7.05003955 -3.19232613 7.05003955 -4 9 C-4 8.34 -4 7.68 -4 7 C-4.66 7 -5.32 7 -6 7 C-4.55802132 4.11604263 -2.29355765 2.23474848 0 0 Z " fill="#29595B" transform="translate(92,39)"/>
<path d="M0 0 C1.98 0 3.96 0 6 0 C6 1.32 6 2.64 6 4 C4.02 4 2.04 4 0 4 C0 2.68 0 1.36 0 0 Z " fill="#E5E5E5" transform="translate(76,163)"/>
<path d="M0 0 C-0.33 0.66 -0.66 1.32 -1 2 C-3.64860427 2.59355614 -6.29197322 2.74209269 -9 3 C-9.33 2.34 -9.66 1.68 -10 1 C-6.59437148 0.22157062 -3.49234244 -0.09978121 0 0 Z " fill="#CBCCCB" transform="translate(108,168)"/>
<path d="M0 0 C3.3 0 6.6 0 10 0 C10 0.33 10 0.66 10 1 C7.69 1 5.38 1 3 1 C3 1.99 3 2.98 3 4 C1.68 3.67 0.36 3.34 -1 3 C-0.67 2.01 -0.34 1.02 0 0 Z " fill="#CDCDCD" transform="translate(219,167)"/>
<path d="M0 0 C0.99 0.33 1.98 0.66 3 1 C1.68 3.64 0.36 6.28 -1 9 C-1.33 9 -1.66 9 -2 9 C-2 7.02 -2 5.04 -2 3 C-1.34 3 -0.68 3 0 3 C0 2.01 0 1.02 0 0 Z " fill="#20A3A0" transform="translate(100,61)"/>
<path d="M0 0 C2.64 0.33 5.28 0.66 8 1 C8 1.99 8 2.98 8 4 C5.125 3.6875 5.125 3.6875 2 3 C1.34 2.01 0.68 1.02 0 0 Z " fill="#968311" transform="translate(183,34)"/>
<path d="M0 0 C1.125 1.5 1.125 1.5 2 4 C1.57598348 6.7773082 0.81108065 9.29639783 0 12 C-0.33 12 -0.66 12 -1 12 C-1.02712066 10.56260487 -1.04645067 9.12506137 -1.0625 7.6875 C-1.07410156 6.88699219 -1.08570313 6.08648437 -1.09765625 5.26171875 C-1 3 -1 3 0 0 Z " fill="#6C6C6C" transform="translate(42,144)"/>
<path d="M0 0 C0.33 0 0.66 0 1 0 C1.125 2.375 1.125 2.375 1 5 C0.34 5.66 -0.32 6.32 -1 7 C-3.125 6.625 -3.125 6.625 -5 6 C-4.01 5.67 -3.02 5.34 -2 5 C-0.78130071 2.49552484 -0.78130071 2.49552484 0 0 Z " fill="#3E4956" transform="translate(126,70)"/>
<path d="" fill="#000000" transform="translate(0,0)"/>
<path d="" fill="#000000" transform="translate(0,0)"/>
<path d="" fill="#000000" transform="translate(0,0)"/>
<path d="" fill="#000000" transform="translate(0,0)"/>
<path d="" fill="#000000" transform="translate(0,0)"/>
<path d="" fill="#000000" transform="translate(0,0)"/>
<path d="" fill="#000000" transform="translate(0,0)"/>
<path d="" fill="#000000" transform="translate(0,0)"/>
<path d="" fill="#000000" transform="translate(0,0)"/>
<path d="" fill="#000000" transform="translate(0,0)"/>
<path d="" fill="#000000" transform="translate(0,0)"/>
</svg>
